<?xml version="1.0" encoding="utf-8"?>
<!-- Generator: Adobe Illustrator 18.0.0, SVG Export Plug-In . SVG Version: 6.00 Build 0)  -->
<!DOCTYPE svg PUBLIC "-//W3C//DTD SVG 1.1//EN" "http://www.w3.org/Graphics/SVG/1.1/DTD/svg11.dtd">
<svg version="1.1" id="Layer_1" xmlns="http://www.w3.org/2000/svg" xmlns:xlink="http://www.w3.org/1999/xlink" x="0px" y="0px"
	 viewBox="91 0 313.6 172" enable-background="new 91 0 313.6 172" xml:space="preserve">
<g opacity="3.000000e-02">
	<ellipse transform="matrix(-0.7504 0.661 -0.661 -0.7504 539.5521 -165.2199)" cx="301" cy="19.3" rx="17.4" ry="13.4"/>
	<path d="M301.6,33.9c-1.6,0.6-1.3,0-0.4,1.4l-9.6-0.7c1.3-1.2,1.1-0.5-0.4-1.4L301.6,33.9z"/>
	
		<ellipse transform="matrix(-9.679876e-02 0.9953 -0.9953 -9.679876e-02 367.1298 -247.1784)" cx="295.7" cy="43" rx="10.2" ry="7.9"/>
	<path d="M295.5,62.9c0.5-5.6,5-9.8,10-9.2c5,0.5,8.6,5.4,8,11c-0.5,5.6-5,9.8-10,9.2C298.6,73.4,295,68.5,295.5,62.9z"/>
	
		<ellipse transform="matrix(-9.677219e-02 0.9953 -0.9953 -9.677219e-02 319.2812 -231.6572)" cx="264.8" cy="29" rx="11.9" ry="10.6"/>
	<path d="M268.6,40.1c-1.2,0.6-1,0.2,0,1.2l-6,0.4c0.8-1.1,0.7-0.7-0.6-1.1L268.6,40.1z"/>
	<ellipse transform="matrix(0.214 0.9768 -0.9768 0.214 252.7312 -224.5486)" cx="265.9" cy="44.8" rx="4.7" ry="4.2"/>
	<path d="M147.6,85.6c5.6-6.4,14.4-7.7,19.8-3c5.3,4.7,5.1,13.7-0.5,20c-5.6,6.4-14.4,7.7-19.8,3C141.8,100.9,142,91.9,147.6,85.6z"
		/>
	<path d="M159.8,80.4c1.3,0.2,2.5-1,2.2-2.3l8,5.3c-1.3,0.2-2,1.8-1.2,2.9L159.8,80.4z"/>
	<path d="M163.2,72.9c2.3-3.7,6.7-5.2,9.8-3.3c3.1,1.9,3.8,6.5,1.5,10.2c-2.3,3.7-6.7,5.2-9.8,3.3C161.6,81.2,160.9,76.6,163.2,72.9
		z"/>
	<path d="M177.5,75.4c-0.8-6.7,3.2-12.7,8.9-13.3c5.7-0.6,10.9,4.3,11.7,11c0.8,6.7-3.2,12.7-8.9,13.3
		C183.5,87,178.3,82.1,177.5,75.4z"/>
	<path d="M124,26.5c-8.4-3.7-13-11.9-10.2-18.3c2.8-6.3,11.9-8.4,20.4-4.6s13,11.9,10.2,18.3C141.6,28.2,132.5,30.3,124,26.5z"/>
	<path d="M104,110.9c3.2-8.7,11-13.8,17.5-11.5c6.5,2.4,9.2,11.3,6,20s-11,13.8-17.5,11.5C103.6,128.5,100.9,119.5,104,110.9z"/>
	<path d="M268.7,138.5c-6.2-4.1-8.1-12.2-4.2-17.9c3.9-5.7,12-7,18.2-2.9c6.2,4.1,8.1,12.2,4.2,17.9
		C283,141.4,274.9,142.7,268.7,138.5z"/>
	<path d="M287.4,123.1c0.4,0.6,0.8,0.3,1.2-0.2l1.2,8.5c-0.6-0.4-1.2-0.1-1.4,0.6L287.4,123.1z"/>
	<path d="M293.9,132.2c-3.3,0.4-6.3-1.9-6.7-5c-0.4-3.1,2.1-5.9,5.5-6.3c3.3-0.4,6.3,1.9,6.7,5C299.6,129,297.2,131.8,293.9,132.2z"
		/>
	<path d="M301.2,122.2c-0.6-5.7,3.2-10.8,8.5-11.4c5.3-0.6,10.1,3.6,10.8,9.4c0.6,5.7-3.2,10.8-8.5,11.4
		C306.6,132.1,301.8,127.9,301.2,122.2z"/>
	<path d="M351.9,157.4c-0.8-7,3.9-13.1,10.3-13.9c6.5-0.7,12.3,4.4,13,11.4c0.8,7-3.9,13.1-10.3,13.9
		C358.5,169.4,352.6,164.3,351.9,157.4z"/>
	<path d="M352.1,158.6c-0.1-0.3-0.5-0.3-0.5-0.1l0.1-5.1c0.1,0.3,0.5,0.2,0.5,0L352.1,158.6z"/>
	<path d="M336.1,156.7c-0.5-4.6,2.6-8.7,7-9.2c4.4-0.5,8.3,2.9,8.8,7.5c0.5,4.6-2.6,8.7-7,9.2C340.5,164.7,336.6,161.4,336.1,156.7z
		"/>
	<path d="M217.7,145.2c-0.6-5.3,2.5-9.9,6.9-10.3c4.4-0.5,8.4,3.4,8.9,8.6c0.5,5.3-2.5,9.9-6.9,10.3
		C222.3,154.3,218.3,150.4,217.7,145.2z"/>
	<path d="M366.3,6.6c5.2-5.1,13.3-5.3,18.1-0.4c4.8,4.9,4.5,13-0.7,18.1c-5.2,5.1-13.3,5.3-18.1,0.4
		C360.8,19.8,361.1,11.7,366.3,6.6z"/>
	<path d="M383.3,24.7c-0.6,0.6-0.5,1.2,0.6,1.9l-8.5,3.3c0.3-0.8-0.2-1.7-1.1-1.8L383.3,24.7z"/>
	<path d="M375.3,32.8c-0.5-3.3,1.6-6.5,4.7-7c3.2-0.5,6.2,1.8,6.7,5.1c0.5,3.3-1.6,6.5-4.7,7C378.8,38.5,375.8,36.2,375.3,32.8z"/>
	<ellipse transform="matrix(0.1636 0.9865 -0.9865 0.1636 372.591 -360.4963)" cx="398.9" cy="39.5" rx="6.1" ry="6.8"/>
	<path d="M398.3,45.5c-1.5,0-2.1,0.6-1.7,2.1l-6.7-6.8c1.5,0.5,2-0.4,2.2-1.9L398.3,45.5z"/>
	<path d="M375.8,61.4c-4.4-4.5-3.9-12.2,1.1-17.1c5-5,12.7-5.4,17.1-0.9c4.4,4.5,3.9,12.2-1.1,17.1S380.3,65.9,375.8,61.4z"/>
	<path d="M366,85.7c-0.9-5.7,2.9-11.1,8.5-12c5.6-0.9,10.9,2.9,11.9,8.6s-2.9,11.1-8.5,12S366.9,91.4,366,85.7z"/>
	<path d="M347.7,105.9c-1.3-4.9,1.9-9.9,7.1-11.3c5.2-1.3,10.5,1.5,11.7,6.4c1.3,4.9-1.9,9.9-7.1,11.3
		C354.2,113.7,349,110.8,347.7,105.9z"/>
	<ellipse transform="matrix(0.7722 -0.6354 0.6354 0.7722 -14.4663 92.5407)" cx="121.8" cy="66.4" rx="11.9" ry="10.6"/>
	<path d="M126.9,56c1.3,0.5,0.9,0.5,0.9-0.8l4.6,3.9c-1.3,0.2-1,0-0.4,1.2L126.9,56z"/>
	<ellipse transform="matrix(0.5394 -0.842 0.842 0.5394 14.9567 136.3801)" cx="132.1" cy="54.5" rx="4.7" ry="4.2"/>
	<path d="M177.8,123.4c5.5,1.2,9.1,6.2,7.9,11s-6.4,7.8-11.9,6.6c-5.5-1.2-9.1-6.2-7.9-11C167,125.1,172.4,122.1,177.8,123.4z"/>
</g>
<circle fill="#FFFFFF" cx="152.1" cy="99.5" r="4.5"/>
<ellipse transform="matrix(-0.6405 0.768 -0.768 -0.6405 273.1527 88.2515)" fill="#FFFFFF" cx="115.9" cy="108.1" rx="6.3" ry="4.9"/>
<ellipse transform="matrix(-0.4841 0.875 -0.875 -0.4841 472.0339 -243.7571)" fill="#FFFFFF" cx="307.9" cy="17.3" rx="6.3" ry="4.9"/>
<ellipse transform="matrix(-0.4841 0.875 -0.875 -0.4841 423.5367 -187.32)" fill="#FFFFFF" cx="267" cy="31.2" rx="6.3" ry="4.9"/>
<ellipse transform="matrix(-0.2346 0.9721 -0.9721 -0.2346 285.1037 -73.2772)" fill="#FFFFFF" cx="171.4" cy="75.6" rx="3.7" ry="2.8"/>
<ellipse transform="matrix(-0.2345 0.9721 -0.9721 -0.2345 312.7408 -91.1972)" fill="#FFFFFF" cx="192.3" cy="77.5" rx="5.2" ry="4.2"/>
<ellipse transform="matrix(-0.2346 0.9721 -0.9721 -0.2346 426.5226 -40.5442)" fill="#FFFFFF" cx="229.2" cy="147.6" rx="3.2" ry="2.6"/>
<path fill="#FFFFFF" d="M133,16.1c3.5-1.2,7.2,0.1,8.2,2.9s-1.1,6.1-4.6,7.4c-3.5,1.2-7.2-0.1-8.2-2.9
	C127.4,20.6,129.4,17.3,133,16.1z"/>
<ellipse transform="matrix(-0.2345 0.9721 -0.9721 -0.2345 454.6913 -104.4638)" fill="#FFFFFF" cx="268.5" cy="126.8" rx="5.2" ry="4.2"/>
<ellipse transform="matrix(-0.2345 0.9721 -0.9721 -0.2345 506.9027 -157.0491)" fill="#FFFFFF" cx="315.3" cy="121.1" rx="4.4" ry="3.5"/>
<ellipse transform="matrix(-0.2346 0.9721 -0.9721 -0.2346 571.3406 -140.889)" fill="#FFFFFF" cx="341.1" cy="154.5" rx="3.9" ry="3.2"/>
<ellipse transform="matrix(-0.7424 0.6699 -0.6699 -0.7424 727.7491 17.812)" fill="#FFFFFF" cx="360.5" cy="148.8" rx="3.9" ry="3.2"/>
<ellipse transform="matrix(-0.2346 0.9721 -0.9721 -0.2346 547.992 -222.9638)" fill="#FFFFFF" cx="361.8" cy="104.3" rx="4.6" ry="3.7"/>
<ellipse transform="matrix(-0.2346 0.9721 -0.9721 -0.2346 538.515 -258.7507)" fill="#FFFFFF" cx="371.1" cy="82.6" rx="4.6" ry="3.7"/>
<path fill="#FFFFFF" d="M374,52.5c0.4-2.5,2.3-4.3,4.3-4c2,0.3,3.3,2.6,2.9,5c-0.4,2.5-2.3,4.3-4.3,4C374.9,57.3,373.6,55,374,52.5z
	"/>
<ellipse transform="matrix(-0.1481 0.989 -0.989 -0.1481 500.5404 -352.0478)" fill="#FFFFFF" cx="401.9" cy="39.6" rx="3.3" ry="2.7"/>
<ellipse transform="matrix(-0.4841 0.875 -0.875 -0.4841 514.2963 -170.0404)" fill="#FFFFFF" cx="307.3" cy="66.6" rx="4.5" ry="3.4"/>
<ellipse transform="matrix(-0.1194 0.9928 -0.9928 -0.1194 376.1171 -243.3301)" fill="#FFFFFF" cx="296" cy="45.1" rx="4.5" ry="3.4"/>
<ellipse transform="matrix(-0.1194 0.9928 -0.9928 -0.1194 425.0335 -352.9156)" fill="#FFFFFF" cx="369" cy="12" rx="4.5" ry="3.4"/>
<ellipse transform="matrix(0.961 -0.2764 0.2764 0.961 -12.7745 36.1349)" fill="#FFFFFF" cx="121.8" cy="63.4" rx="6.3" ry="4.9"/>
<ellipse transform="matrix(-0.8076 -0.5897 0.5897 -0.8076 232.9718 345.147)" fill="#FFFFFF" cx="172.8" cy="134.6" rx="4.5" ry="3.4"/>
</svg>
