<?xml version="1.0" encoding="utf-8"?>
<!-- Generator: Adobe Illustrator 18.0.0, SVG Export Plug-In . SVG Version: 6.00 Build 0)  -->
<!DOCTYPE svg PUBLIC "-//W3C//DTD SVG 1.1//EN" "http://www.w3.org/Graphics/SVG/1.1/DTD/svg11.dtd">
<svg version="1.1" id="Layer_1" xmlns="http://www.w3.org/2000/svg" xmlns:xlink="http://www.w3.org/1999/xlink" x="0px" y="0px"
	 viewBox="0 0 360 155" enable-background="new 0 0 360 155" xml:space="preserve">
<path fill="#6FAA46" d="M221.6,111.4c0-3.5,2.8-6.3,6.3-6.3s6.3,2.8,6.3,6.3s-2.8,6.3-6.3,6.3S221.6,114.9,221.6,111.4 M281.4,9.6
	c0,3.5,2.8,6.3,6.3,6.3c3.5,0,6.3-2.8,6.3-6.3s-2.8-6.3-6.3-6.3C284.2,3.3,281.4,6.1,281.4,9.6 M281.4,26.6c0,3.5,2.8,6.3,6.3,6.3
	c3.5,0,6.3-2.8,6.3-6.3s-2.8-6.3-6.3-6.3C284.2,20.3,281.4,23.1,281.4,26.6 M281.4,43.6c0,3.5,2.8,6.3,6.3,6.3
	c3.5,0,6.3-2.8,6.3-6.3c0-3.5-2.8-6.3-6.3-6.3C284.2,37.2,281.4,40.1,281.4,43.6 M281.4,60.5c0,3.5,2.8,6.3,6.3,6.3
	c3.5,0,6.3-2.8,6.3-6.3s-2.8-6.3-6.3-6.3C284.2,54.2,281.4,57,281.4,60.5 M281.4,77.5c0,3.5,2.8,6.3,6.3,6.3c3.5,0,6.3-2.8,6.3-6.3
	c0-3.5-2.8-6.3-6.3-6.3C284.2,71.2,281.4,74,281.4,77.5 M281.4,94.5c0,3.5,2.8,6.3,6.3,6.3c3.5,0,6.3-2.8,6.3-6.3
	c0-3.5-2.8-6.3-6.3-6.3C284.2,88.2,281.4,91,281.4,94.5 M281.4,111.4c0,3.5,2.8,6.3,6.3,6.3c3.5,0,6.3-2.8,6.3-6.3s-2.8-6.3-6.3-6.3
	C284.2,105.1,281.4,108,281.4,111.4 M281.4,128.4c0,3.5,2.8,6.3,6.3,6.3c3.5,0,6.3-2.8,6.3-6.3c0-3.5-2.8-6.3-6.3-6.3
	C284.2,122.1,281.4,124.9,281.4,128.4 M281.4,145.4c0,3.5,2.8,6.3,6.3,6.3c3.5,0,6.3-2.8,6.3-6.3s-2.8-6.3-6.3-6.3
	C284.2,139.1,281.4,141.9,281.4,145.4 M297.2,18.1c0,3.5,2.8,6.3,6.3,6.3c3.5,0,6.3-2.8,6.3-6.3c0-3.5-2.8-6.3-6.3-6.3
	C300,11.8,297.2,14.6,297.2,18.1 M297.2,35.1c0,3.5,2.8,6.3,6.3,6.3c3.5,0,6.3-2.8,6.3-6.3s-2.8-6.3-6.3-6.3
	C300,28.7,297.2,31.6,297.2,35.1 M297.2,52c0,3.5,2.8,6.3,6.3,6.3c3.5,0,6.3-2.8,6.3-6.3s-2.8-6.3-6.3-6.3
	C300,45.7,297.2,48.5,297.2,52 M297.2,69c0,3.5,2.8,6.3,6.3,6.3c3.5,0,6.3-2.8,6.3-6.3c0-3.5-2.8-6.3-6.3-6.3
	C300,62.7,297.2,65.5,297.2,69 M297.2,86c0,3.5,2.8,6.3,6.3,6.3c3.5,0,6.3-2.8,6.3-6.3c0-3.5-2.8-6.3-6.3-6.3
	C300,79.7,297.2,82.5,297.2,86 M297.2,103c0,3.5,2.8,6.3,6.3,6.3c3.5,0,6.3-2.8,6.3-6.3c0-3.5-2.8-6.3-6.3-6.3
	C300,96.6,297.2,99.5,297.2,103 M297.2,119.9c0,3.5,2.8,6.3,6.3,6.3c3.5,0,6.3-2.8,6.3-6.3s-2.8-6.3-6.3-6.3
	C300,113.6,297.2,116.4,297.2,119.9 M297.2,136.9c0,3.5,2.8,6.3,6.3,6.3c3.5,0,6.3-2.8,6.3-6.3s-2.8-6.3-6.3-6.3
	C300,130.6,297.2,133.4,297.2,136.9 M312.1,26.6c0,3.5,2.8,6.3,6.3,6.3s6.3-2.8,6.3-6.3s-2.8-6.3-6.3-6.3S312.1,23.1,312.1,26.6
	 M312.1,43.6c0,3.5,2.8,6.3,6.3,6.3s6.3-2.8,6.3-6.3c0-3.5-2.8-6.3-6.3-6.3S312.1,40.1,312.1,43.6 M312.1,60.5
	c0,3.5,2.8,6.3,6.3,6.3s6.3-2.8,6.3-6.3s-2.8-6.3-6.3-6.3S312.1,57,312.1,60.5 M312.1,77.5c0,3.5,2.8,6.3,6.3,6.3s6.3-2.8,6.3-6.3
	c0-3.5-2.8-6.3-6.3-6.3S312.1,74,312.1,77.5 M312.1,94.5c0,3.5,2.8,6.3,6.3,6.3s6.3-2.8,6.3-6.3c0-3.5-2.8-6.3-6.3-6.3
	S312.1,91,312.1,94.5 M312.1,111.4c0,3.5,2.8,6.3,6.3,6.3s6.3-2.8,6.3-6.3s-2.8-6.3-6.3-6.3S312.1,108,312.1,111.4 M312.1,128.4
	c0,3.5,2.8,6.3,6.3,6.3s6.3-2.8,6.3-6.3c0-3.5-2.8-6.3-6.3-6.3S312.1,124.9,312.1,128.4 M327.2,35.1c0,3.5,2.8,6.3,6.3,6.3
	c3.5,0,6.3-2.8,6.3-6.3s-2.8-6.3-6.3-6.3C330,28.7,327.2,31.6,327.2,35.1 M327.2,52c0,3.5,2.8,6.3,6.3,6.3c3.5,0,6.3-2.8,6.3-6.3
	s-2.8-6.3-6.3-6.3C330,45.7,327.2,48.5,327.2,52 M327.2,69c0,3.5,2.8,6.3,6.3,6.3c3.5,0,6.3-2.8,6.3-6.3c0-3.5-2.8-6.3-6.3-6.3
	C330,62.7,327.2,65.5,327.2,69 M327.2,86c0,3.5,2.8,6.3,6.3,6.3c3.5,0,6.3-2.8,6.3-6.3c0-3.5-2.8-6.3-6.3-6.3
	C330,79.7,327.2,82.5,327.2,86 M327.2,103c0,3.5,2.8,6.3,6.3,6.3c3.5,0,6.3-2.8,6.3-6.3c0-3.5-2.8-6.3-6.3-6.3
	C330,96.6,327.2,99.5,327.2,103 M327.2,119.9c0,3.5,2.8,6.3,6.3,6.3c3.5,0,6.3-2.8,6.3-6.3s-2.8-6.3-6.3-6.3
	C330,113.6,327.2,116.4,327.2,119.9 M342.4,43.6c0,3.5,2.8,6.3,6.3,6.3c3.5,0,6.3-2.8,6.3-6.3c0-3.5-2.8-6.3-6.3-6.3
	C345.2,37.2,342.4,40.1,342.4,43.6 M342.4,60.5c0,3.5,2.8,6.3,6.3,6.3c3.5,0,6.3-2.8,6.3-6.3s-2.8-6.3-6.3-6.3
	C345.2,54.2,342.4,57,342.4,60.5 M342.4,77.5c0,3.5,2.8,6.3,6.3,6.3c3.5,0,6.3-2.8,6.3-6.3c0-3.5-2.8-6.3-6.3-6.3
	C345.2,71.2,342.4,74,342.4,77.5 M342.4,94.5c0,3.5,2.8,6.3,6.3,6.3c3.5,0,6.3-2.8,6.3-6.3c0-3.5-2.8-6.3-6.3-6.3
	C345.2,88.2,342.4,91,342.4,94.5 M342.4,111.4c0,3.5,2.8,6.3,6.3,6.3c3.5,0,6.3-2.8,6.3-6.3s-2.8-6.3-6.3-6.3
	C345.2,105.1,342.4,108,342.4,111.4 M266.7,18.1c0,3.5,2.8,6.3,6.3,6.3c3.5,0,6.3-2.8,6.3-6.3c0-3.5-2.8-6.3-6.3-6.3
	C269.5,11.8,266.7,14.6,266.7,18.1 M266.7,35.1c0,3.5,2.8,6.3,6.3,6.3c3.5,0,6.3-2.8,6.3-6.3s-2.8-6.3-6.3-6.3
	C269.5,28.7,266.7,31.6,266.7,35.1 M266.7,52c0,3.5,2.8,6.3,6.3,6.3c3.5,0,6.3-2.8,6.3-6.3s-2.8-6.3-6.3-6.3
	C269.5,45.7,266.7,48.5,266.7,52 M266.7,69c0,3.5,2.8,6.3,6.3,6.3c3.5,0,6.3-2.8,6.3-6.3c0-3.5-2.8-6.3-6.3-6.3
	C269.5,62.7,266.7,65.5,266.7,69 M266.7,86c0,3.5,2.8,6.3,6.3,6.3c3.5,0,6.3-2.8,6.3-6.3c0-3.5-2.8-6.3-6.3-6.3
	C269.5,79.7,266.7,82.5,266.7,86 M266.7,103c0,3.5,2.8,6.3,6.3,6.3c3.5,0,6.3-2.8,6.3-6.3c0-3.5-2.8-6.3-6.3-6.3
	C269.5,96.6,266.7,99.5,266.7,103 M266.7,119.9c0,3.5,2.8,6.3,6.3,6.3c3.5,0,6.3-2.8,6.3-6.3s-2.8-6.3-6.3-6.3
	C269.5,113.6,266.7,116.4,266.7,119.9 M266.7,136.9c0,3.5,2.8,6.3,6.3,6.3c3.5,0,6.3-2.8,6.3-6.3s-2.8-6.3-6.3-6.3
	C269.5,130.6,266.7,133.4,266.7,136.9 M251.7,26.6c0,3.5,2.8,6.3,6.3,6.3c3.5,0,6.3-2.8,6.3-6.3s-2.8-6.3-6.3-6.3
	C254.5,20.3,251.7,23.1,251.7,26.6 M251.7,43.6c0,3.5,2.8,6.3,6.3,6.3c3.5,0,6.3-2.8,6.3-6.3c0-3.5-2.8-6.3-6.3-6.3
	C254.5,37.2,251.7,40.1,251.7,43.6 M251.7,60.5c0,3.5,2.8,6.3,6.3,6.3c3.5,0,6.3-2.8,6.3-6.3s-2.8-6.3-6.3-6.3
	C254.5,54.2,251.7,57,251.7,60.5 M251.7,77.5c0,3.5,2.8,6.3,6.3,6.3c3.5,0,6.3-2.8,6.3-6.3c0-3.5-2.8-6.3-6.3-6.3
	C254.5,71.2,251.7,74,251.7,77.5 M251.7,111.4c0,3.5,2.8,6.3,6.3,6.3c3.5,0,6.3-2.8,6.3-6.3s-2.8-6.3-6.3-6.3
	C254.5,105.1,251.7,108,251.7,111.4 M251.7,128.4c0,3.5,2.8,6.3,6.3,6.3c3.5,0,6.3-2.8,6.3-6.3c0-3.5-2.8-6.3-6.3-6.3
	C254.5,122.1,251.7,124.9,251.7,128.4 M236.4,35.1c0,3.5,2.8,6.3,6.3,6.3c3.5,0,6.3-2.8,6.3-6.3s-2.8-6.3-6.3-6.3
	C239.2,28.7,236.4,31.6,236.4,35.1 M236.4,52c0,3.5,2.8,6.3,6.3,6.3c3.5,0,6.3-2.8,6.3-6.3s-2.8-6.3-6.3-6.3
	C239.2,45.7,236.4,48.5,236.4,52 M236.4,69c0,3.5,2.8,6.3,6.3,6.3c3.5,0,6.3-2.8,6.3-6.3c0-3.5-2.8-6.3-6.3-6.3
	C239.2,62.7,236.4,65.5,236.4,69 M236.4,86c0,3.5,2.8,6.3,6.3,6.3c3.5,0,6.3-2.8,6.3-6.3c0-3.5-2.8-6.3-6.3-6.3
	C239.2,79.7,236.4,82.5,236.4,86 M236.4,103c0,3.5,2.8,6.3,6.3,6.3c3.5,0,6.3-2.8,6.3-6.3c0-3.5-2.8-6.3-6.3-6.3
	C239.2,96.6,236.4,99.5,236.4,103 M236.4,119.9c0,3.5,2.8,6.3,6.3,6.3c3.5,0,6.3-2.8,6.3-6.3s-2.8-6.3-6.3-6.3
	C239.2,113.6,236.4,116.4,236.4,119.9 M221.6,43.6c0,3.5,2.8,6.3,6.3,6.3s6.3-2.8,6.3-6.3c0-3.5-2.8-6.3-6.3-6.3
	S221.6,40.1,221.6,43.6 M221.6,60.5c0,3.5,2.8,6.3,6.3,6.3s6.3-2.8,6.3-6.3s-2.8-6.3-6.3-6.3S221.6,57,221.6,60.5 M221.6,77.5
	c0,3.5,2.8,6.3,6.3,6.3s6.3-2.8,6.3-6.3c0-3.5-2.8-6.3-6.3-6.3S221.6,74,221.6,77.5 M221.6,94.5c0,3.5,2.8,6.3,6.3,6.3
	s6.3-2.8,6.3-6.3c0-3.5-2.8-6.3-6.3-6.3S221.6,91,221.6,94.5"/>
<path fill="#E2001A" d="M251.7,94.5c0-3.5,2.8-6.3,6.3-6.3c3.5,0,6.3,2.8,6.3,6.3c0,3.5-2.8,6.3-6.3,6.3
	C254.5,100.8,251.7,98,251.7,94.5"/>
<path d="M43.2,102.5H5V50.7h37.7v6.2H12v15.9h28.4V79H12v17.3h31.2V102.5z M101.9,102.5V50.7h-10L77.2,94.5h-0.1L62.3,50.7h-10v51.8
	H59V71.9c0-1.5-0.1-8.1-0.1-12.8H59l14.6,43.4h6.9L95.1,59h0.1c0,4.8-0.1,11.4-0.1,12.9v30.6H101.9z M120.2,96.5h14.9
	c7.3,0,11-3.7,11-9.5c0-7.3-6.4-8.7-12.1-8.7h-13.8L120.2,96.5L120.2,96.5z M113.2,50.7H136c9.7,0,14.6,6,14.6,13.1
	c0,3.4-1.2,8.2-6.9,10.8c3.4,1.4,9.4,3.8,9.4,12.6c0,8.3-6.1,15.3-17.6,15.3h-22.3C113.2,102.5,113.2,50.7,113.2,50.7z M120.2,72.6
	h12.6c6.7,0,10.8-2,10.8-8.4c0-4.8-3-7.6-10.8-7.6h-12.7C120.2,56.7,120.2,72.6,120.2,72.6z M168.6,50.7h-7v51.8h33.3v-6.2h-26.3
	L168.6,50.7L168.6,50.7z"/>
<defs>
	<filter id="Adobe_OpacityMaskFilter" filterUnits="userSpaceOnUse">
		<feColorMatrix  type="matrix" values="1 0 0 0 0  0 1 0 0 0  0 0 1 0 0  0 0 0 1 0"/>
	</filter>
</defs>
<mask maskUnits="userSpaceOnUse" id="Vector_Smart_Object_copy_2_xA0_Image_4_">
	<g id="Vector_Smart_Object_copy_2Opacity_Mask_1_" filter="url(#Adobe_OpacityMaskFilter)">
	</g>
</mask>
<g id="Vector_Smart_Object_copy_2_xA0_Image_1_" mask="url(#Vector_Smart_Object_copy_2_xA0_Image_4_)">
</g>
</svg>
