<?xml version="1.0" encoding="utf-8"?>
<!-- Generator: Adobe Illustrator 18.0.0, SVG Export Plug-In . SVG Version: 6.00 Build 0)  -->
<!DOCTYPE svg PUBLIC "-//W3C//DTD SVG 1.1//EN" "http://www.w3.org/Graphics/SVG/1.1/DTD/svg11.dtd">
<svg version="1.1" id="Layer_1" xmlns="http://www.w3.org/2000/svg" xmlns:xlink="http://www.w3.org/1999/xlink" x="0px" y="0px"
	 viewBox="0 0 524 215" enable-background="new 0 0 524 215" xml:space="preserve">
<g>
	<path fill="#B3B4B4" d="M30.1,60.3l-10.5,0l-2.8,8.8h-3.7l9.7-28.9l4.1,0l9.7,28.9h-3.9L30.1,60.3z M29.2,57.3l-1.4-4.4
		c-0.5-1.6-1-3.2-1.5-4.8c-0.5-1.6-0.9-3.2-1.4-4.9h-0.2c-0.5,1.7-0.9,3.3-1.4,4.9c-0.5,1.6-1,3.2-1.5,4.8l-1.4,4.4H29.2z"/>
	<path fill="#B3B4B4" d="M44,40.2h3.7l0,18c0,1.5,0.2,2.8,0.5,3.8c0.3,1,0.7,1.9,1.3,2.5c0.5,0.6,1.2,1.1,1.9,1.4
		c0.7,0.3,1.5,0.4,2.4,0.4c0.9,0,1.7-0.1,2.4-0.4c0.7-0.3,1.4-0.8,1.9-1.4c0.6-0.6,1-1.5,1.3-2.5c0.3-1,0.5-2.3,0.5-3.8l0-18h3.6
		l0,18c0,2.1-0.2,3.8-0.7,5.3c-0.5,1.4-1.2,2.6-2,3.5c-0.9,0.9-1.9,1.6-3.1,2c-1.2,0.4-2.5,0.6-3.9,0.6c-1.4,0-2.7-0.2-3.9-0.6
		c-1.2-0.4-2.2-1.1-3.1-2c-0.9-0.9-1.5-2.1-2-3.5C44.2,62,44,60.2,44,58.1L44,40.2z"/>
	<path fill="#B3B4B4" d="M71.7,54.6c0-2.3,0.3-4.4,0.9-6.3c0.6-1.9,1.5-3.4,2.6-4.7c1.1-1.3,2.5-2.3,4-2.9c1.6-0.7,3.3-1,5.2-1
		c1,0,1.8,0.1,2.6,0.3s1.5,0.5,2.2,0.8c0.7,0.3,1.2,0.7,1.8,1.1c0.5,0.4,1,0.8,1.4,1.3l-2.1,2.3c-0.7-0.8-1.5-1.4-2.4-1.9
		c-0.9-0.5-2.1-0.7-3.5-0.7c-1.3,0-2.6,0.3-3.7,0.8S78.8,45,78,46c-0.8,1-1.4,2.2-1.8,3.7c-0.4,1.4-0.6,3.1-0.6,4.8
		c0,1.8,0.2,3.5,0.6,4.9c0.4,1.5,1,2.7,1.7,3.7c0.7,1,1.7,1.8,2.8,2.4c1.1,0.6,2.4,0.8,3.8,0.8c1,0,2-0.2,2.9-0.5
		c0.9-0.3,1.6-0.7,2.2-1.3l0-7.5h-5.8v-3l9.2,0l0,12.1c-0.9,0.9-2.1,1.7-3.6,2.4s-3.1,1-5,1c-1.8,0-3.5-0.3-5-1
		c-1.5-0.7-2.8-1.6-4-2.9c-1.1-1.3-2-2.8-2.6-4.7C72,59.1,71.7,57,71.7,54.6z"/>
	<path fill="#B3B4B4" d="M101.1,54.6c0-2.3,0.3-4.4,0.9-6.2c0.6-1.8,1.5-3.4,2.7-4.7c1.1-1.3,2.5-2.3,4.1-3c1.6-0.7,3.3-1,5.2-1
		c1.8,0,3.3,0.4,4.6,1.1c1.3,0.7,2.4,1.5,3.3,2.5l-2.1,2.3c-0.8-0.8-1.6-1.4-2.6-1.9c-0.9-0.5-2-0.7-3.3-0.7c-1.4,0-2.6,0.3-3.8,0.8
		c-1.1,0.5-2.1,1.3-2.9,2.3c-0.8,1-1.4,2.2-1.8,3.7c-0.4,1.4-0.6,3.1-0.6,4.8c0,1.8,0.2,3.5,0.6,4.9c0.4,1.5,1,2.7,1.8,3.7
		c0.8,1,1.8,1.8,2.9,2.4c1.1,0.6,2.4,0.8,3.8,0.8c1.3,0,2.5-0.3,3.5-0.8c1-0.6,2-1.3,2.9-2.4l2.1,2.2c-1.1,1.3-2.4,2.3-3.9,3.1
		c-1.4,0.7-3.1,1.1-4.9,1.1c-1.8,0-3.5-0.3-5-1s-2.9-1.6-4-2.9c-1.1-1.3-2-2.8-2.7-4.7C101.4,59.1,101.1,57,101.1,54.6z"/>
	<path fill="#B3B4B4" d="M129.9,54.6c0-2.3,0.3-4.4,0.9-6.2c0.6-1.8,1.5-3.4,2.7-4.7c1.1-1.3,2.5-2.3,4.1-3c1.6-0.7,3.3-1,5.2-1
		c1.8,0,3.3,0.4,4.6,1.1c1.3,0.7,2.4,1.5,3.3,2.5l-2.1,2.3c-0.8-0.8-1.6-1.4-2.6-1.9c-0.9-0.5-2-0.7-3.3-0.7c-1.4,0-2.6,0.3-3.8,0.8
		c-1.1,0.5-2.1,1.3-2.9,2.3c-0.8,1-1.4,2.2-1.8,3.7c-0.4,1.4-0.6,3.1-0.6,4.8c0,1.8,0.2,3.5,0.6,4.9c0.4,1.5,1,2.7,1.8,3.7
		c0.8,1,1.8,1.8,2.9,2.4c1.1,0.6,2.4,0.8,3.8,0.8c1.3,0,2.5-0.3,3.5-0.8c1-0.6,2-1.3,2.9-2.4l2.1,2.2c-1.1,1.3-2.4,2.3-3.9,3.1
		c-1.4,0.7-3.1,1.1-4.9,1.1c-1.8,0-3.5-0.3-5-1s-2.9-1.6-4-2.9c-1.1-1.3-2-2.8-2.7-4.7C130.2,59.1,129.9,57,129.9,54.6z"/>
	<path fill="#B3B4B4" d="M159.3,40.2h3.7l0,18c0,1.5,0.2,2.8,0.5,3.8c0.3,1,0.7,1.9,1.3,2.5c0.5,0.6,1.2,1.1,1.9,1.4
		c0.7,0.3,1.5,0.4,2.4,0.4c0.9,0,1.7-0.1,2.4-0.4c0.7-0.3,1.4-0.8,1.9-1.4c0.6-0.6,1-1.5,1.3-2.5c0.3-1,0.5-2.3,0.5-3.8l0-18h3.6
		l0,18c0,2.1-0.2,3.8-0.7,5.3c-0.5,1.4-1.2,2.6-2,3.5c-0.9,0.9-1.9,1.6-3.1,2c-1.2,0.4-2.5,0.6-3.9,0.6c-1.4,0-2.7-0.2-3.9-0.6
		c-1.2-0.4-2.2-1.1-3.1-2c-0.9-0.9-1.5-2.1-2-3.5c-0.5-1.4-0.7-3.2-0.7-5.3L159.3,40.2z"/>
	<path fill="#B3B4B4" d="M203,60.2l-10.5,0l-2.8,8.8h-3.7l9.7-28.9l4.1,0l9.7,28.9h-3.9L203,60.2z M202.1,57.3l-1.4-4.4
		c-0.5-1.6-1-3.2-1.5-4.8c-0.5-1.6-0.9-3.2-1.4-4.9h-0.2c-0.5,1.7-0.9,3.3-1.4,4.9c-0.5,1.6-1,3.2-1.5,4.8l-1.4,4.4H202.1z"/>
	<path fill="#417BBF" d="M215.8,54.6c0-2.3,0.3-4.4,0.9-6.3c0.6-1.9,1.5-3.4,2.6-4.7c1.1-1.3,2.5-2.3,4-2.9c1.6-0.7,3.3-1,5.2-1
		c1,0,1.8,0.1,2.6,0.3c0.8,0.2,1.5,0.5,2.2,0.8c0.7,0.3,1.2,0.7,1.8,1.1c0.5,0.4,1,0.8,1.4,1.3l-2.1,2.3c-0.7-0.8-1.5-1.4-2.4-1.9
		c-0.9-0.5-2.1-0.7-3.5-0.7c-1.3,0-2.6,0.3-3.7,0.8c-1.1,0.5-2,1.3-2.8,2.3c-0.8,1-1.4,2.2-1.8,3.7c-0.4,1.4-0.6,3.1-0.6,4.8
		c0,1.8,0.2,3.5,0.6,4.9c0.4,1.5,1,2.7,1.7,3.7c0.7,1,1.7,1.8,2.8,2.4c1.1,0.6,2.4,0.8,3.8,0.8c1,0,2-0.2,2.9-0.5
		c0.9-0.3,1.6-0.7,2.2-1.3l0-7.5h-5.8v-3l9.2,0l0,12.1c-0.9,0.9-2.1,1.7-3.6,2.4s-3.1,1-5,1c-1.8,0-3.5-0.3-5-1
		c-1.5-0.7-2.8-1.6-4-2.9c-1.1-1.3-2-2.8-2.6-4.7C216.1,59.1,215.8,57,215.8,54.6z"/>
	<path fill="#417BBF" d="M244.7,54.6c0-2.3,0.3-4.4,0.9-6.3c0.6-1.9,1.5-3.4,2.6-4.7c1.1-1.3,2.5-2.3,4-2.9c1.6-0.7,3.3-1,5.2-1
		c1,0,1.8,0.1,2.6,0.3c0.8,0.2,1.5,0.5,2.2,0.8c0.7,0.3,1.2,0.7,1.8,1.1c0.5,0.4,1,0.8,1.4,1.3l-2.1,2.3c-0.7-0.8-1.5-1.4-2.4-1.9
		c-0.9-0.5-2.1-0.7-3.5-0.7c-1.3,0-2.6,0.3-3.7,0.8c-1.1,0.5-2,1.3-2.8,2.3c-0.8,1-1.4,2.2-1.8,3.7c-0.4,1.4-0.6,3.1-0.6,4.8
		c0,1.8,0.2,3.5,0.6,4.9c0.4,1.5,1,2.7,1.7,3.7c0.7,1,1.7,1.8,2.8,2.4c1.1,0.6,2.4,0.8,3.8,0.8c1,0,2-0.2,2.9-0.5
		c0.9-0.3,1.6-0.7,2.2-1.3v-7.5l-5.8,0v-3l9.2,0v12.1c-0.9,0.9-2.1,1.7-3.6,2.4c-1.5,0.6-3.1,1-5,1c-1.8,0-3.5-0.3-5-1
		c-1.5-0.7-2.8-1.6-4-2.9c-1.1-1.3-2-2.8-2.6-4.7C245,59.1,244.7,57,244.7,54.6z"/>
	<path fill="#B3B4B4" d="M274,54.6c0-2.3,0.3-4.4,0.9-6.2c0.6-1.8,1.5-3.4,2.7-4.7c1.1-1.3,2.5-2.3,4.1-3c1.6-0.7,3.3-1,5.2-1
		c1.8,0,3.3,0.4,4.6,1.1c1.3,0.7,2.4,1.5,3.3,2.5l-2.1,2.3c-0.8-0.8-1.6-1.4-2.6-1.9s-2-0.7-3.3-0.7c-1.4,0-2.6,0.3-3.8,0.8
		c-1.1,0.5-2.1,1.3-2.9,2.3c-0.8,1-1.4,2.2-1.8,3.7c-0.4,1.4-0.6,3.1-0.6,4.8c0,1.8,0.2,3.5,0.6,4.9c0.4,1.5,1,2.7,1.8,3.7
		c0.8,1,1.8,1.8,2.9,2.4c1.1,0.6,2.4,0.8,3.8,0.8c1.3,0,2.5-0.3,3.5-0.8c1-0.6,2-1.3,2.9-2.4l2.1,2.2c-1.1,1.3-2.4,2.3-3.9,3.1
		c-1.4,0.7-3.1,1.1-4.9,1.1c-1.8,0-3.5-0.3-5-1s-2.9-1.6-4-2.9c-1.1-1.3-2-2.8-2.7-4.7C274.4,59.1,274,57,274,54.6z"/>
	<path fill="#B3B4B4" d="M302.3,54.6c0-2.3,0.3-4.4,0.9-6.3c0.6-1.9,1.5-3.4,2.6-4.7c1.1-1.3,2.5-2.3,4-2.9c1.6-0.7,3.3-1,5.2-1
		c1,0,1.8,0.1,2.6,0.3c0.8,0.2,1.5,0.5,2.2,0.8c0.7,0.3,1.2,0.7,1.8,1.1c0.5,0.4,1,0.8,1.4,1.3l-2.1,2.3c-0.7-0.8-1.5-1.4-2.4-1.9
		c-0.9-0.5-2.1-0.7-3.5-0.7c-1.3,0-2.6,0.3-3.7,0.8c-1.1,0.5-2,1.3-2.8,2.3c-0.8,1-1.4,2.2-1.8,3.7c-0.4,1.4-0.6,3.1-0.6,4.8
		c0,1.8,0.2,3.5,0.6,4.9c0.4,1.5,1,2.7,1.7,3.7c0.7,1,1.7,1.8,2.8,2.4c1.1,0.6,2.4,0.8,3.8,0.8c1,0,2-0.2,2.9-0.5
		c0.9-0.3,1.6-0.7,2.2-1.3v-7.5l-5.8,0v-3l9.2,0l0,12.1c-0.9,0.9-2.1,1.7-3.6,2.4c-1.5,0.6-3.1,1-5,1c-1.8,0-3.5-0.3-5-1
		s-2.8-1.6-4-2.9s-2-2.8-2.6-4.7C302.6,59.1,302.3,57,302.3,54.6z"/>
	<path fill="#B3B4B4" d="M348.4,60.2l-10.5,0l-2.8,8.8h-3.7l9.7-28.9h4.1L355,69l-3.9,0L348.4,60.2z M347.5,57.3l-1.4-4.4
		c-0.5-1.6-1-3.2-1.5-4.8c-0.5-1.6-0.9-3.2-1.4-4.9h-0.2c-0.5,1.7-0.9,3.3-1.4,4.9c-0.5,1.6-1,3.2-1.5,4.8l-1.4,4.4L347.5,57.3z"/>
	<path fill="#B3B4B4" d="M350,21.1l3.2-1.9l9.1,15.5c0.8,1.3,1.5,2.3,2.3,3c0.8,0.7,1.6,1.2,2.4,1.5c0.8,0.3,1.6,0.3,2.4,0.2
		c0.8-0.1,1.6-0.4,2.3-0.8c0.8-0.4,1.4-1,1.9-1.6c0.5-0.6,0.8-1.3,1-2.2c0.2-0.8,0.1-1.8-0.2-2.8c-0.3-1.1-0.8-2.2-1.5-3.5
		l-9.1-15.5l3.1-1.8l9.1,15.5c1.1,1.8,1.7,3.4,2.1,4.9c0.3,1.5,0.3,2.8,0.1,4.1c-0.3,1.2-0.8,2.3-1.6,3.3c-0.8,1-1.8,1.8-3,2.5
		s-2.4,1.2-3.7,1.5c-1.2,0.3-2.5,0.2-3.7-0.2c-1.2-0.4-2.4-1-3.5-2c-1.1-1-2.2-2.4-3.3-4.2L350,21.1z"/>
	<path fill="#B3B4B4" d="M384.2,19.7c-0.4-2.3-0.5-4.4-0.2-6.3c0.3-1.9,0.9-3.7,1.7-5.1c0.9-1.5,2-2.7,3.4-3.6c1.4-1,3-1.6,4.9-2
		c1-0.2,1.8-0.2,2.7-0.2c0.8,0.1,1.6,0.2,2.3,0.4c0.7,0.2,1.4,0.5,1.9,0.8c0.6,0.3,1.1,0.6,1.6,1l-1.6,2.7c-0.8-0.6-1.7-1.1-2.7-1.4
		c-1-0.3-2.2-0.4-3.6-0.1c-1.3,0.2-2.5,0.7-3.5,1.5c-1,0.7-1.8,1.7-2.4,2.8s-1,2.5-1.1,3.9c-0.2,1.5-0.1,3.1,0.3,4.9
		c0.3,1.8,0.8,3.4,1.5,4.7c0.7,1.4,1.4,2.5,2.4,3.3c0.9,0.9,2,1.5,3.2,1.8c1.2,0.3,2.5,0.4,3.9,0.1c1-0.2,1.9-0.5,2.7-1
		c0.8-0.5,1.4-1,1.9-1.6l-1.4-7.4l-5.7,1.1l-0.6-3l9-1.7l2.2,11.9c-0.8,1.1-1.8,2.1-3.1,3c-1.3,0.9-2.9,1.5-4.8,1.9
		c-1.8,0.3-3.5,0.3-5.1-0.1s-3.1-1.1-4.4-2.1s-2.5-2.4-3.4-4.2C385.3,24,384.6,22,384.2,19.7z"/>
	<path fill="#B3B4B4" d="M418.7,1.5l3.6,0.6l-2.9,17.8c-0.2,1.5-0.3,2.8-0.1,3.8c0.1,1.1,0.4,2,0.9,2.7c0.4,0.7,1,1.3,1.7,1.7
		s1.5,0.7,2.3,0.8c0.9,0.1,1.7,0.1,2.5-0.1c0.8-0.2,1.5-0.5,2.1-1.1c0.6-0.5,1.2-1.3,1.7-2.3c0.5-1,0.8-2.2,1.1-3.7l2.9-17.8
		l3.5,0.6l-2.8,17.7c-0.3,2.1-0.8,3.8-1.6,5.1c-0.7,1.3-1.6,2.4-2.5,3.2c-1,0.8-2.1,1.3-3.3,1.5c-1.2,0.2-2.6,0.2-3.9,0
		s-2.6-0.6-3.8-1.2c-1.1-0.6-2-1.4-2.7-2.5c-0.7-1-1.2-2.3-1.4-3.8s-0.2-3.3,0.1-5.3L418.7,1.5z"/>
	<path fill="#B3B4B4" d="M457.3,35l-9.2-5.1l-6.7,6.4l-3.3-1.8l22.5-20.5l3.6,2l-5.5,30l-3.4-1.9L457.3,35z M457.9,31.9l0.9-4.5
		c0.3-1.7,0.7-3.3,1.1-4.9c0.4-1.6,0.7-3.3,1.1-5l-0.2-0.1c-1.2,1.2-2.4,2.4-3.6,3.6c-1.2,1.2-2.4,2.3-3.6,3.5l-3.3,3.2L457.9,31.9z
		"/>
	<path fill="#B3B4B4" d="M473,39.3c1.7-1.5,3.5-2.7,5.3-3.4c1.8-0.7,3.6-1.1,5.3-1.1c1.7,0,3.4,0.4,4.9,1.1c1.6,0.7,3,1.8,4.2,3.2
		c1.2,1.3,1.9,2.7,2.3,4.2c0.3,1.5,0.4,2.8,0.3,4.1l-3.1,0c0.1-1.1,0-2.2-0.2-3.2c-0.3-1-0.8-2-1.6-2.9c-0.9-1-1.9-1.8-3.1-2.3
		c-1.2-0.5-2.4-0.7-3.7-0.6s-2.6,0.4-4,1.1c-1.4,0.6-2.7,1.5-4.1,2.7c-1.4,1.2-2.5,2.4-3.3,3.7c-0.8,1.3-1.3,2.6-1.6,3.8
		c-0.2,1.3-0.2,2.5,0.1,3.7c0.3,1.2,0.9,2.3,1.9,3.4c0.9,1,1.9,1.7,3,2.1c1.1,0.4,2.3,0.6,3.7,0.6l-0.3,3.1c-1.7,0-3.4-0.3-4.9-0.9
		c-1.5-0.6-2.9-1.6-4.1-3c-1.2-1.4-2.1-2.9-2.6-4.5s-0.7-3.2-0.4-4.9c0.2-1.7,0.8-3.4,1.8-5.1C469.8,42.5,471.2,40.9,473,39.3z"/>
	<path fill="#B3B4B4" d="M492.2,64.1c2.2-0.8,4.2-1.3,6.2-1.4c2-0.1,3.7,0.2,5.4,0.7c1.6,0.6,3,1.5,4.3,2.7c1.2,1.2,2.2,2.7,2.9,4.5
		c0.6,1.6,0.9,3.2,0.7,4.7s-0.5,2.8-1.1,3.9l-2.9-1.1c0.5-1,0.7-2,0.8-3.1c0.1-1.1-0.1-2.1-0.5-3.3c-0.5-1.3-1.2-2.4-2.1-3.2
		c-0.9-0.9-2-1.5-3.2-1.8c-1.2-0.4-2.6-0.5-4.1-0.4c-1.5,0.1-3.1,0.5-4.7,1.2c-1.7,0.7-3.1,1.5-4.3,2.4c-1.2,0.9-2.1,1.9-2.8,3.1
		c-0.7,1.1-1,2.3-1.2,3.6c-0.1,1.3,0.1,2.5,0.6,3.8c0.5,1.2,1.2,2.2,2.1,3c0.9,0.8,2,1.4,3.3,1.9l-1.3,2.8c-1.6-0.6-3.1-1.4-4.3-2.5
		c-1.2-1.1-2.2-2.5-2.8-4.2c-0.7-1.7-1-3.4-0.9-5.1c0.1-1.7,0.5-3.3,1.3-4.8c0.8-1.5,1.9-2.9,3.4-4.2
		C488.2,66,490.1,64.9,492.2,64.1z"/>
	<path fill="#417BBF" d="M502,93.3c2.3-0.1,4.4,0.2,6.3,0.8c1.9,0.6,3.5,1.4,4.8,2.5c1.3,1.1,2.3,2.4,3.1,4c0.7,1.5,1.1,3.3,1.2,5.1
		c0,1,0,1.9-0.2,2.6c-0.2,0.8-0.4,1.5-0.7,2.2c-0.3,0.7-0.7,1.3-1.1,1.8c-0.4,0.5-0.8,1-1.2,1.4l-2.4-2c0.7-0.7,1.3-1.6,1.8-2.5
		c0.5-0.9,0.7-2.1,0.6-3.5c0-1.3-0.3-2.6-0.9-3.6s-1.4-2-2.4-2.8s-2.3-1.3-3.7-1.7c-1.4-0.4-3.1-0.5-4.9-0.5
		c-1.8,0.1-3.4,0.3-4.9,0.7c-1.4,0.4-2.7,1-3.7,1.8c-1,0.8-1.8,1.7-2.3,2.9c-0.5,1.1-0.8,2.4-0.7,3.8c0,1,0.2,2,0.5,2.8
		c0.3,0.9,0.8,1.6,1.3,2.1l7.5-0.2l-0.2-5.8l3-0.1l0.3,9.1l-12.1,0.4c-1-0.9-1.8-2.1-2.5-3.5c-0.7-1.4-1.1-3.1-1.1-5
		c-0.1-1.8,0.2-3.5,0.9-5c0.6-1.5,1.6-2.9,2.8-4c1.2-1.2,2.8-2.1,4.6-2.7S499.6,93.4,502,93.3z"/>
	<path fill="#417BBF" d="M501.2,124.7c2.2,0.7,4.1,1.7,5.7,2.8c1.6,1.2,2.8,2.5,3.7,4c0.9,1.5,1.4,3.1,1.5,4.8
		c0.2,1.7,0,3.5-0.6,5.2c-0.3,0.9-0.7,1.7-1.1,2.4c-0.4,0.7-0.9,1.3-1.4,1.8c-0.5,0.5-1.1,1-1.6,1.3c-0.5,0.4-1.1,0.7-1.6,0.9
		l-1.6-2.7c0.9-0.4,1.8-1,2.5-1.7c0.8-0.7,1.4-1.7,1.8-3.1c0.4-1.3,0.5-2.5,0.4-3.7c-0.2-1.2-0.6-2.4-1.3-3.4
		c-0.7-1.1-1.7-2-2.9-2.9c-1.2-0.8-2.7-1.6-4.4-2.1c-1.7-0.6-3.3-0.9-4.8-1c-1.5-0.1-2.9,0.1-4.1,0.5s-2.2,1-3.1,1.9
		c-0.9,0.9-1.5,2-2,3.3c-0.3,1-0.5,1.9-0.4,2.9s0.2,1.7,0.5,2.4l7.2,2.3l1.8-5.5l2.9,0.9l-2.8,8.7l-11.5-3.8c-0.6-1.2-1-2.6-1.1-4.2
		c-0.2-1.6,0.1-3.3,0.6-5.1c0.6-1.7,1.4-3.2,2.5-4.5c1.1-1.2,2.5-2.2,4-2.9c1.6-0.7,3.3-1,5.3-1S499,123.9,501.2,124.7z"/>
	<path fill="#B3B4B4" d="M475.6,163.2l6.4-8.3l-5.2-7.6l2.3-3l16.8,25.4l-2.5,3.3l-28.8-10l2.4-3.1L475.6,163.2z M478.5,164.2
		l4.3,1.6c1.6,0.6,3.1,1.2,4.7,1.8c1.6,0.6,3.1,1.2,4.7,1.9l0.1-0.1c-1-1.4-2-2.8-3-4.1c-1-1.4-1.9-2.7-2.9-4.1l-2.6-3.8
		L478.5,164.2z"/>
	<path fill="#B3B4B4" d="M476.2,190.5l-3.1,2l-9.7-15.2c-0.8-1.3-1.6-2.3-2.4-3c-0.8-0.7-1.6-1.2-2.4-1.4c-0.8-0.2-1.6-0.3-2.4-0.1
		c-0.8,0.1-1.5,0.5-2.3,0.9c-0.7,0.5-1.3,1-1.8,1.7c-0.5,0.6-0.8,1.4-0.9,2.2c-0.1,0.8,0,1.8,0.2,2.8s0.8,2.2,1.7,3.5l9.7,15.2
		l-3,1.9l-9.6-15.1c-1.1-1.8-1.9-3.4-2.2-4.8c-0.4-1.5-0.4-2.8-0.2-4.1c0.2-1.2,0.7-2.3,1.5-3.3c0.8-1,1.8-1.9,3-2.6
		c1.2-0.8,2.4-1.3,3.6-1.6s2.5-0.3,3.7,0c1.2,0.3,2.4,0.9,3.6,1.9c1.2,1,2.3,2.3,3.4,4.1L476.2,190.5z"/>
	<path fill="#B3B4B4" d="M442.1,193.1c0.5,2.3,0.7,4.4,0.4,6.3c-0.2,2-0.7,3.7-1.5,5.2c-0.8,1.5-1.9,2.7-3.3,3.8
		c-1.4,1-3,1.7-4.8,2.1c-0.9,0.2-1.8,0.3-2.6,0.3c-0.8,0-1.6-0.1-2.3-0.3c-0.7-0.2-1.4-0.4-2-0.7c-0.6-0.3-1.1-0.6-1.6-0.9l1.5-2.7
		c0.9,0.6,1.8,1,2.8,1.3c1,0.3,2.2,0.3,3.6,0c1.3-0.3,2.5-0.8,3.4-1.6s1.7-1.7,2.3-2.9c0.6-1.2,0.9-2.5,1-4c0.1-1.5,0-3.1-0.4-4.9
		c-0.4-1.8-0.9-3.3-1.7-4.7s-1.5-2.4-2.5-3.3s-2-1.4-3.2-1.7c-1.2-0.3-2.5-0.3-3.9,0c-1,0.2-1.9,0.6-2.7,1.1
		c-0.8,0.5-1.4,1.1-1.8,1.7l1.6,7.3l5.6-1.3l0.7,3l-8.9,2l-2.6-11.9c0.7-1.1,1.7-2.2,3-3.1c1.3-0.9,2.9-1.6,4.7-2
		c1.8-0.4,3.5-0.4,5.1-0.1c1.6,0.3,3.1,1,4.5,2c1.4,1,2.6,2.3,3.6,4C440.8,188.8,441.5,190.8,442.1,193.1z"/>
	<path fill="#B3B4B4" d="M408.2,212.5l-3.7-0.4l2.2-17.9c0.2-1.5,0.2-2.8,0-3.8c-0.2-1.1-0.5-2-1-2.6c-0.5-0.7-1-1.2-1.7-1.6
		c-0.7-0.4-1.5-0.6-2.3-0.7c-0.9-0.1-1.7-0.1-2.5,0.1c-0.8,0.2-1.5,0.6-2.1,1.1c-0.6,0.6-1.2,1.3-1.6,2.3c-0.4,1-0.7,2.2-0.9,3.7
		l-2.2,17.9l-3.5-0.4l2.2-17.8c0.3-2.1,0.7-3.8,1.4-5.2c0.7-1.4,1.5-2.5,2.4-3.3c1-0.8,2-1.4,3.3-1.6c1.2-0.3,2.5-0.3,3.9-0.1
		c1.4,0.2,2.7,0.5,3.8,1.1c1.1,0.6,2.1,1.3,2.8,2.4s1.3,2.3,1.6,3.8c0.3,1.5,0.3,3.3,0.1,5.3L408.2,212.5z"/>
	<path fill="#B3B4B4" d="M372.8,205.2l-3.3-1.7l8.1-16.1c0.7-1.3,1.1-2.5,1.3-3.6c0.2-1.1,0.2-2,0-2.8c-0.2-0.8-0.6-1.5-1.1-2.1
		s-1.2-1.1-2-1.5c-0.8-0.4-1.6-0.6-2.4-0.7c-0.8-0.1-1.6,0.1-2.4,0.4c-0.8,0.3-1.5,0.9-2.3,1.7c-0.7,0.8-1.4,1.9-2.1,3.2l-8.1,16.1
		l-3.2-1.6l8-16.1c0.9-1.9,1.9-3.3,3-4.4c1.1-1.1,2.2-1.8,3.4-2.3c1.2-0.4,2.4-0.6,3.6-0.4s2.5,0.6,3.8,1.2c1.3,0.6,2.3,1.4,3.2,2.3
		c0.9,0.9,1.5,2,1.9,3.2c0.4,1.2,0.4,2.6,0.2,4.1c-0.2,1.5-0.8,3.2-1.7,5L372.8,205.2z"/>
	<path fill="#B3B4B4" d="M345.9,161.7l7.2,7.6l8.3-4.1l2.6,2.7l-27.6,12.9l-2.9-3l14.2-26.9l2.7,2.8L345.9,161.7z M344.4,164.4
		l-2.2,4c-0.8,1.5-1.7,2.9-2.5,4.4c-0.8,1.4-1.7,2.9-2.6,4.4l0.1,0.1c1.5-0.8,3-1.6,4.5-2.4c1.5-0.8,3-1.5,4.5-2.3l4.1-2
		L344.4,164.4z"/>
	<path fill="#B3B4B4" d="M326.8,160.4c0,2.3-0.3,4.4-1,6.3c-0.6,1.9-1.5,3.4-2.7,4.7c-1.1,1.3-2.5,2.2-4.1,2.9c-1.6,0.7-3.3,1-5.2,1
		c-1,0-1.8-0.1-2.6-0.3c-0.8-0.2-1.5-0.5-2.2-0.8c-0.7-0.3-1.2-0.7-1.8-1.1c-0.5-0.4-1-0.8-1.4-1.3l2.1-2.3c0.7,0.8,1.5,1.4,2.4,1.9
		c0.9,0.5,2.1,0.8,3.5,0.8c1.3,0,2.6-0.3,3.7-0.8c1.1-0.5,2.1-1.3,2.9-2.3s1.4-2.2,1.8-3.7c0.4-1.4,0.7-3,0.7-4.8
		c0-1.8-0.2-3.5-0.6-4.9c-0.4-1.5-1-2.7-1.7-3.7c-0.7-1-1.7-1.8-2.8-2.4c-1.1-0.6-2.4-0.9-3.8-0.9c-1,0-2,0.1-2.9,0.4
		s-1.6,0.7-2.2,1.2l0,7.5l5.8,0l0,3l-9.2-0.1l0.1-12.1c0.9-0.9,2.2-1.7,3.6-2.4c1.5-0.6,3.1-0.9,5-0.9c1.8,0,3.5,0.4,5,1
		s2.8,1.7,3.9,2.9s2,2.9,2.6,4.7C326.6,155.9,326.9,158,326.8,160.4z"/>
	<path fill="#B3B4B4" d="M297.5,160.2c0,2.3-0.3,4.4-1,6.2s-1.5,3.4-2.7,4.7c-1.2,1.3-2.5,2.3-4.1,2.9c-1.6,0.7-3.3,1-5.2,1
		c-1.8,0-3.3-0.4-4.6-1.1c-1.3-0.7-2.4-1.5-3.2-2.5l2.1-2.3c0.8,0.8,1.6,1.4,2.5,1.9c0.9,0.5,2,0.7,3.3,0.7c1.4,0,2.6-0.3,3.8-0.8
		c1.1-0.5,2.1-1.3,2.9-2.3c0.8-1,1.4-2.2,1.8-3.7c0.4-1.4,0.7-3,0.7-4.8c0-1.8-0.2-3.5-0.6-4.9c-0.4-1.5-1-2.7-1.8-3.7
		c-0.8-1-1.7-1.8-2.9-2.4c-1.1-0.6-2.4-0.9-3.8-0.9c-1.3,0-2.5,0.3-3.5,0.8c-1,0.6-2,1.3-3,2.4l-2.1-2.3c1.2-1.3,2.4-2.3,3.9-3.1
		c1.4-0.7,3.1-1.1,4.9-1.1c1.8,0,3.5,0.4,5,1c1.5,0.7,2.9,1.7,4,2.9c1.1,1.3,2,2.9,2.6,4.7C297.2,155.8,297.5,157.9,297.5,160.2z"/>
	<path fill="#B3B4B4" d="M268,174.5l-3.7,0l0.1-18c0-1.5-0.1-2.8-0.4-3.8c-0.3-1-0.7-1.9-1.3-2.5c-0.5-0.6-1.2-1.1-1.9-1.4
		c-0.7-0.3-1.5-0.4-2.4-0.5s-1.7,0.1-2.4,0.4c-0.7,0.3-1.4,0.7-1.9,1.4c-0.6,0.6-1,1.5-1.3,2.5c-0.3,1-0.5,2.3-0.5,3.8l-0.1,18
		l-3.6,0l0.1-18c0-2.1,0.3-3.8,0.8-5.3c0.5-1.4,1.2-2.6,2-3.5c0.9-0.9,1.9-1.6,3.1-2s2.5-0.6,3.9-0.6c1.4,0,2.7,0.2,3.9,0.6
		c1.2,0.4,2.2,1.1,3.1,2c0.9,0.9,1.5,2.1,2,3.6c0.5,1.4,0.7,3.2,0.7,5.3L268,174.5z"/>
	<path fill="#B3B4B4" d="M239.8,159.9c0,2.3-0.3,4.4-1,6.2c-0.6,1.8-1.5,3.4-2.7,4.7c-1.2,1.3-2.5,2.3-4.1,2.9c-1.6,0.7-3.3,1-5.2,1
		c-1.8,0-3.3-0.4-4.6-1.1s-2.4-1.5-3.2-2.5l2.1-2.3c0.8,0.8,1.6,1.4,2.5,1.9c0.9,0.5,2,0.7,3.3,0.7c1.4,0,2.6-0.3,3.8-0.8
		c1.1-0.5,2.1-1.3,2.9-2.3c0.8-1,1.4-2.2,1.8-3.7c0.4-1.4,0.7-3,0.7-4.8c0-1.8-0.2-3.5-0.6-4.9s-1-2.7-1.8-3.7
		c-0.8-1-1.7-1.8-2.9-2.4c-1.1-0.6-2.4-0.9-3.8-0.9c-1.3,0-2.5,0.3-3.5,0.8c-1,0.6-2,1.3-3,2.4l-2.1-2.3c1.2-1.3,2.4-2.3,3.9-3.1
		c1.4-0.7,3.1-1.1,4.9-1.1c1.8,0,3.5,0.4,5,1c1.5,0.7,2.9,1.7,4,2.9c1.1,1.3,2,2.9,2.6,4.7C239.5,155.4,239.8,157.5,239.8,159.9z"/>
	<path fill="#B3B4B4" d="M211,159.7c0,2.3-0.3,4.4-1,6.2c-0.6,1.8-1.5,3.4-2.7,4.7c-1.2,1.3-2.5,2.3-4.1,2.9c-1.6,0.7-3.3,1-5.2,1
		c-1.8,0-3.3-0.4-4.6-1.1s-2.4-1.5-3.2-2.5l2.1-2.3c0.8,0.8,1.6,1.4,2.5,1.9c0.9,0.5,2,0.7,3.3,0.7c1.4,0,2.6-0.3,3.8-0.8
		c1.1-0.5,2.1-1.3,2.9-2.3c0.8-1,1.4-2.2,1.8-3.7c0.4-1.4,0.7-3,0.7-4.8c0-1.8-0.2-3.5-0.6-4.9s-1-2.7-1.8-3.7
		c-0.8-1-1.7-1.8-2.9-2.4c-1.1-0.6-2.4-0.9-3.8-0.9c-1.3,0-2.5,0.3-3.5,0.8c-1,0.6-2,1.3-3,2.4l-2.1-2.3c1.2-1.3,2.4-2.3,3.9-3.1
		c1.4-0.7,3.1-1.1,4.9-1.1c1.8,0,3.5,0.4,5,1c1.5,0.7,2.9,1.7,4,2.9c1.1,1.3,2,2.9,2.6,4.7C210.7,155.2,211,157.3,211,159.7z"/>
	<path fill="#B3B4B4" d="M181.5,173.9l-3.7,0l0.1-18c0-1.5-0.1-2.8-0.4-3.8c-0.3-1-0.7-1.9-1.3-2.5c-0.5-0.6-1.2-1.1-1.9-1.4
		c-0.7-0.3-1.5-0.4-2.4-0.5s-1.7,0.1-2.4,0.4c-0.7,0.3-1.4,0.7-1.9,1.4c-0.6,0.6-1,1.5-1.3,2.5c-0.3,1-0.5,2.3-0.5,3.8l-0.1,18
		l-3.6,0l0.1-18c0-2.1,0.3-3.8,0.8-5.3c0.5-1.4,1.2-2.6,2-3.5c0.9-0.9,1.9-1.6,3.1-2s2.5-0.6,3.9-0.6c1.4,0,2.7,0.2,3.9,0.6
		c1.2,0.4,2.2,1.1,3.1,2c0.9,0.9,1.5,2.1,2,3.6c0.5,1.4,0.7,3.2,0.7,5.3L181.5,173.9z"/>
	<path fill="#B3B4B4" d="M137.9,153.6l10.5,0.1l2.8-8.8l3.7,0l-9.9,28.8l-4.1,0l-9.6-28.9l3.9,0L137.9,153.6z M138.8,156.6l1.3,4.4
		c0.5,1.6,1,3.2,1.4,4.8c0.5,1.6,0.9,3.2,1.4,4.9l0.2,0c0.5-1.7,1-3.3,1.4-4.9c0.5-1.6,1-3.2,1.5-4.8l1.4-4.4L138.8,156.6z"/>
	<path fill="#B3B4B4" d="M125.1,159.2c0,2.3-0.3,4.4-1,6.3c-0.6,1.9-1.5,3.4-2.7,4.7c-1.1,1.3-2.5,2.2-4.1,2.9c-1.6,0.7-3.3,1-5.2,1
		c-1,0-1.8-0.1-2.6-0.3c-0.8-0.2-1.5-0.5-2.2-0.8c-0.7-0.3-1.2-0.7-1.8-1.1c-0.5-0.4-1-0.8-1.4-1.3l2.1-2.3c0.7,0.8,1.5,1.4,2.4,1.9
		c0.9,0.5,2.1,0.8,3.5,0.8c1.3,0,2.6-0.3,3.7-0.8c1.1-0.5,2.1-1.3,2.9-2.3c0.8-1,1.4-2.2,1.8-3.7c0.4-1.4,0.7-3,0.7-4.8
		c0-1.8-0.2-3.5-0.6-4.9c-0.4-1.5-1-2.7-1.7-3.7c-0.7-1-1.7-1.8-2.8-2.4c-1.1-0.6-2.4-0.9-3.8-0.9c-1,0-2,0.1-2.9,0.4
		s-1.6,0.7-2.2,1.2l0,7.5l5.8,0l0,3l-9.2-0.1l0.1-12.1c0.9-0.9,2.2-1.7,3.6-2.4c1.5-0.6,3.1-0.9,5-0.9c1.8,0,3.5,0.4,5,1
		c1.5,0.7,2.8,1.7,3.9,2.9c1.1,1.3,2,2.9,2.6,4.7C124.8,154.7,125.1,156.8,125.1,159.2z"/>
	<path fill="#B3B4B4" d="M95.7,159c0,2.3-0.3,4.4-1,6.2c-0.6,1.8-1.5,3.4-2.7,4.7c-1.2,1.3-2.5,2.3-4.1,2.9c-1.6,0.7-3.3,1-5.2,1
		c-1.8,0-3.3-0.4-4.6-1.1c-1.3-0.7-2.4-1.5-3.2-2.5L77,168c0.8,0.8,1.6,1.4,2.5,1.9c0.9,0.5,2,0.7,3.3,0.7c1.4,0,2.6-0.3,3.8-0.8
		c1.1-0.5,2.1-1.3,2.9-2.3c0.8-1,1.4-2.2,1.8-3.7c0.4-1.4,0.7-3,0.7-4.8c0-1.8-0.2-3.5-0.6-4.9s-1-2.7-1.8-3.7
		c-0.8-1-1.7-1.8-2.9-2.4c-1.1-0.6-2.4-0.9-3.8-0.9c-1.3,0-2.5,0.3-3.5,0.8c-1,0.6-2,1.3-3,2.4l-2.1-2.3c1.2-1.3,2.4-2.3,3.9-3.1
		c1.4-0.7,3.1-1.1,4.9-1.1c1.8,0,3.5,0.4,5,1c1.5,0.7,2.9,1.7,4,2.9c1.1,1.3,2,2.9,2.6,4.7C95.4,154.5,95.7,156.6,95.7,159z"/>
	<path fill="#417BBF" d="M67.4,158.8c0,2.3-0.3,4.4-1,6.3c-0.6,1.9-1.5,3.4-2.7,4.7c-1.1,1.3-2.5,2.2-4.1,2.9c-1.6,0.7-3.3,1-5.2,1
		c-1,0-1.8-0.1-2.6-0.3c-0.8-0.2-1.5-0.5-2.2-0.8c-0.7-0.3-1.2-0.7-1.8-1.1c-0.5-0.4-1-0.8-1.4-1.3l2.1-2.3c0.7,0.8,1.5,1.4,2.4,1.9
		c0.9,0.5,2.1,0.8,3.5,0.8c1.3,0,2.6-0.3,3.7-0.8c1.1-0.5,2.1-1.3,2.9-2.3c0.8-1,1.4-2.2,1.8-3.7c0.4-1.4,0.7-3,0.7-4.8
		c0-1.8-0.2-3.5-0.6-4.9c-0.4-1.5-1-2.7-1.7-3.7c-0.7-1-1.7-1.8-2.8-2.4c-1.1-0.6-2.4-0.9-3.8-0.9c-1,0-2,0.1-2.9,0.4
		s-1.6,0.7-2.2,1.2l0,7.5l5.8,0l0,3l-9.2-0.1l0.1-12.1c0.9-0.9,2.2-1.7,3.6-2.4c1.5-0.6,3.1-0.9,5-0.9c1.8,0,3.5,0.4,5,1
		c1.5,0.7,2.8,1.7,3.9,2.9c1.1,1.3,2,2.9,2.6,4.7C67.1,154.4,67.4,156.5,67.4,158.8z"/>
	<path fill="#417BBF" d="M38.6,158.7c0,2.3-0.3,4.4-1,6.3c-0.6,1.9-1.5,3.4-2.7,4.7c-1.1,1.3-2.5,2.2-4.1,2.9c-1.6,0.7-3.3,1-5.2,1
		c-1,0-1.8-0.1-2.6-0.3c-0.8-0.2-1.5-0.5-2.2-0.8c-0.7-0.3-1.2-0.7-1.8-1.1c-0.5-0.4-1-0.8-1.4-1.3l2.1-2.3c0.7,0.8,1.5,1.4,2.4,1.9
		c0.9,0.5,2.1,0.8,3.5,0.8c1.3,0,2.6-0.3,3.7-0.8c1.1-0.5,2.1-1.3,2.9-2.3c0.8-1,1.4-2.2,1.8-3.7c0.4-1.4,0.7-3,0.7-4.8
		c0-1.8-0.2-3.5-0.6-4.9c-0.4-1.5-1-2.7-1.7-3.7c-0.7-1-1.7-1.8-2.8-2.4s-2.4-0.9-3.8-0.9c-1,0-2,0.1-2.9,0.4s-1.6,0.7-2.2,1.2
		l0,7.5l5.8,0l0,3l-9.2-0.1l0.1-12.1c0.9-0.9,2.2-1.7,3.6-2.4c1.5-0.6,3.1-0.9,5-0.9c1.8,0,3.5,0.4,5,1c1.5,0.7,2.8,1.7,3.9,2.9
		c1.1,1.3,2,2.9,2.6,4.7C38.3,154.2,38.6,156.3,38.6,158.7z"/>
</g>
<g>
	<path fill="#333333" d="M27.3,112.4L13.8,84.2h8.5l4.9,11.4c1.3,3.4,2.5,6.4,4,9.9h0.3c1.4-3.4,2.8-6.5,4.1-9.9l4.9-11.4h8.3
		l-13.5,28.2v16.7h-8V112.4z"/>
	<path fill="#333333" d="M63.5,94.6c9.1,0,13.9,6.6,13.9,16c0,1.5-0.1,2.9-0.3,3.7H55.7c0.7,6.1,4.5,9.5,9.9,9.5
		c2.9,0,5.3-0.9,7.8-2.5l2.7,4.9c-3.2,2.1-7.3,3.6-11.5,3.6c-9.3,0-16.6-6.5-16.6-17.6C48,101.3,55.6,94.6,63.5,94.6z M70.5,109.3
		c0-5.3-2.3-8.6-6.9-8.6c-4,0-7.4,2.9-8.1,8.6H70.5z"/>
	<path fill="#333333" d="M102.5,107.6c-0.1-3.6-1.6-6.6-6.1-6.6c-3.4,0-6.5,1.5-9.5,3.3L84,99c3.7-2.3,8.4-4.4,13.8-4.4
		c8.4,0,12.5,5.1,12.5,14.5v20h-6.4l-0.6-3.7h-0.2c-3,2.5-6.4,4.5-10.4,4.5c-5.9,0-10-4-10-9.9C82.7,112.8,88.7,109.1,102.5,107.6z
		 M95.1,123.7c2.7,0,4.9-1.4,7.3-3.7v-7.5c-9.1,1.2-12.1,3.6-12.1,6.9C90.4,122.4,92.3,123.7,95.1,123.7z"/>
	<path fill="#333333" d="M120.3,120.2c3,2.3,5.9,3.8,9.3,3.8c3.6,0,5.3-1.7,5.3-4c0-2.8-3.6-4-7.2-5.4c-4.5-1.6-9.5-4.2-9.5-9.8
		c0-5.9,4.7-10.1,12.3-10.1c4.7,0,8.4,1.9,11.2,4l-3.6,4.8c-2.3-1.7-4.7-2.9-7.4-2.9c-3.4,0-4.9,1.6-4.9,3.7c0,2.7,3.4,3.7,7,5
		c4.6,1.7,9.7,3.9,9.7,10.2c0,5.8-4.6,10.4-13.1,10.4c-4.6,0-9.5-2-12.8-4.7L120.3,120.2z"/>
	<path fill="#333333" d="M150.7,101.7h-4.8v-5.9l5.2-0.3l1-9.2h6.6v9.2h8.6v6.2h-8.6v16c0,4,1.5,5.9,4.7,5.9c1.2,0,2.5-0.3,3.5-0.8
		l1.4,5.8c-1.9,0.6-4.2,1.2-6.9,1.2c-7.8,0-10.7-4.9-10.7-12.2V101.7z"/>
	<path fill="#333333" d="M206,83.1c5.2,0,9.3,2.6,11.7,5.4l-1.9,2.1c-2.4-2.7-5.7-4.6-9.8-4.6c-9.9,0-16,7.9-16,20.4
		c0,12.5,6,20.6,15.8,20.6c4.7,0,8.1-1.9,11.4-5.6l1.9,2c-3.5,4-7.6,6.4-13.4,6.4c-11.2,0-18.9-9.1-18.9-23.5
		C186.7,92.1,194.5,83.1,206,83.1z"/>
	<path fill="#333333" d="M253.3,129.1L241,108.3h-9.6v20.8h-3.2V83.9h13c9,0,14.8,3.3,14.8,11.9c0,7.2-4.5,11.4-11.6,12.3l12.5,21
		H253.3z M240.4,105.7c8,0,12.4-3.2,12.4-9.9c0-6.8-4.5-9.3-12.4-9.3h-9v19.1H240.4z"/>
	<path fill="#333333" d="M266.6,83.9h3.2v45.2h-3.2V83.9z"/>
	<path fill="#333333" d="M281.6,120.9c3.3,3.7,8,6.1,13.2,6.1c6.9,0,11.2-3.7,11.2-9.1c0-5.6-3.6-7.5-8.1-9.5l-6.9-3.1
		c-4-1.7-9.2-4.5-9.2-11.2c0-6.5,5.6-11.1,13.2-11.1c5.4,0,9.8,2.5,12.5,5.4l-1.8,2.1c-2.7-2.8-6.2-4.7-10.8-4.7c-6,0-10,3.2-10,8.1
		c0,5.2,4.5,7.2,7.8,8.7l6.9,3c5.1,2.3,9.5,5.1,9.5,12c0,6.9-5.7,12.1-14.5,12.1c-6.6,0-11.7-2.8-15.3-6.8L281.6,120.9z"/>
	<path fill="#333333" d="M318.8,83.9h12.3c10.1,0,16.1,3.3,16.1,12.6c0,8.8-6,13.2-16.1,13.2H322v19.4h-3.2V83.9z M330.4,107
		c9.2,0,13.6-3.1,13.6-10.5c0-7.6-4.5-9.9-13.6-9.9H322V107H330.4z"/>
	<path fill="#333333" d="M382.2,129.1l-12.3-20.8h-9.6v20.8h-3.2V83.9h13c9,0,14.8,3.3,14.8,11.9c0,7.2-4.5,11.4-11.6,12.3l12.5,21
		H382.2z M369.3,105.7c8,0,12.4-3.2,12.4-9.9c0-6.8-4.5-9.3-12.4-9.3h-9v19.1H369.3z"/>
	<path fill="#333333" d="M394,85.5c0-1.7,1.2-2.7,2.7-2.7c1.5,0,2.7,1,2.7,2.7c0,1.6-1.2,2.7-2.7,2.7C395.3,88.2,394,87.1,394,85.5z
		 M395.2,96.2h3v32.9h-3V96.2z"/>
</g>
</svg>
