<?xml version="1.0" encoding="utf-8"?>
<!-- Generator: Adobe Illustrator 18.0.0, SVG Export Plug-In . SVG Version: 6.00 Build 0)  -->
<!DOCTYPE svg PUBLIC "-//W3C//DTD SVG 1.1//EN" "http://www.w3.org/Graphics/SVG/1.1/DTD/svg11.dtd">
<svg version="1.1" id="Layer_1" xmlns="http://www.w3.org/2000/svg" xmlns:xlink="http://www.w3.org/1999/xlink" x="0px" y="0px"
	 viewBox="0 0 360 155" enable-background="new 0 0 360 155" xml:space="preserve">
<g id="Rectangle_74_1_" enable-background="new    ">
	<g>
		<g>
			<path fill="#890816" d="M172,82.7c-9.1,0-9.8-6.9-9.8-9c0-2.5,0.7-6.9,6.5-9c6-2.2,7.3-2.5,11.4-3.7v-1.1c0-2,0-2.5-0.4-3.7
				c-0.8-2.4-3.1-3.9-6.2-3.9c-4.5,0-6.4,3.5-6.4,3.5l-0.4,0.7l-1.7-1l0.2-0.5c0.8-2.6,4.1-7.1,11.3-7.1c4.7,0,7.7,1.3,9.6,4.2
				c1.4,2.3,1.5,5.4,1.5,8.7c0,2.9-0.1,6.1-0.1,8.7c0,1.8-0.1,3.3-0.1,4.3c0,2.4,0.4,4.2,2.4,4.2c0.5,0,0.8-0.1,1.1-0.3l0.5-0.5
				l1.1,1.3l-0.4,0.5c-1.8,2.2-3.6,3.7-6.6,3.7c-2.7,0-4.5-1.3-5.1-3.4C178.9,80.7,176.2,82.7,172,82.7z M180,65
				c-4.5,1.3-6,2.1-7.4,2.8c-1.9,1-2.9,3-2.9,5.3c0,1.8,0.6,4.9,5,4.9c1.4,0,3.5-0.3,5.3-1.6V65z"/>
		</g>
		<g>
			<g>
				<path fill="#890816" d="M116.3,82.6c-4.4,0-7.7-0.5-11.1-1.6l-0.5-0.2v-2.4c0-3.3-0.1-4.5-0.1-5.6l-0.1-1.7l2,0l0,0.7
					c0.1,1.5,0.6,3,1.5,4.1c1.4,1.6,4.7,2.6,7.8,2.6c6.4,0,9.4-2.4,9.4-7.6c0-4.5-2.8-6.3-6.6-8.9l-0.6-0.4l-4-2.7
					c-5.6-3.7-8.4-6.7-8.4-12.6c0-2.9,1.1-12.4,15.2-12.4c5.8,0,10.2,0.8,10.4,0.8l0.6,0.1l0,0.6c0,0,0,1.8,0,3.8c0,1.6,0,2.9,0,4.3
					l0.1,1.1h-1.7l0-0.7c-0.1-1.8-0.6-3.1-1.6-4.1c-1.4-1.4-4.3-2-7.5-2c-7.5,0-8.3,3.8-8.3,6.7c0,4,2,5.3,6.5,8.2l5.1,3.4
					c4.3,2.9,8.4,5.6,8.4,12.8C132.6,81.3,121.2,82.6,116.3,82.6z"/>
			</g>
			<g>
				<path fill="#890816" d="M149.7,82.8c-5.2,0-8.1-1.9-9.4-6c-0.5-1.7-0.5-4.9-0.5-6.8c0-5.4,0-9.7,0.1-14.7l0-2.3h-4.4v-1.3
					l0.4-0.2c2.1-0.9,2.9-1.4,3.8-2.1c3.2-2.5,5.5-6.7,5.5-6.8l0.8-1.3h1.5v7.6h11.4v4.2h-11.4v17.6c0,5.3,1,8.3,6,8.3
					c2.3,0,4.1-0.9,4.1-0.9l0.7-0.4l0.6,1.4l-0.3,0.3C158.4,79.4,155.8,82.8,149.7,82.8z"/>
			</g>
			<g>
				<path fill="#890816" d="M195.4,82.4v-1.6l0.6,0c0.6,0,2-0.3,3-1.4c1-1.2,1.1-4,1.1-9.7V60c0-4.1-0.1-5.9-0.7-6.8
					c-0.7-1-2.2-1.1-3-1.1c-0.1,0-0.2,0-0.3,0l-0.6-0.1V50l0.8,0.1c0.1,0,0.3,0,0.5,0c1,0,3.5-0.1,6.1-0.6c2-0.3,3.1-1,3.5-1.2
					l0.4-0.2l0.7,0.4v2.7c1.7-1.3,5.1-3.2,9.7-3.2c6.1,0,10,2.8,11.1,8c0.3,1.3,0.4,4.4,0.4,6v9.8c0,5.5,0.2,7.1,1.3,8.1
					c0.5,0.5,1.6,0.9,2.6,0.9l0.7,0v1.6l-1.7-0.1c-2.4-0.1-4.5-0.2-6.7-0.2c-2.5,0-4.6,0-7.6,0.3l-0.8,0.1v-1.6l0.6-0.1
					c1.3-0.2,2.2-0.6,2.8-1.1c1.1-1.1,1.1-3.7,1.2-5.9c0-0.4,0-0.8,0-1.2c0.1-1.3,0.1-3.9,0.1-5.8c0-2.5,0-5.1-0.3-7.7
					c-0.5-4.3-2.8-6.4-7.1-6.4c-3,0-4.9,0.7-6.3,1.4v17.6c0,5.5,0.2,7.1,1.3,8.1c0.5,0.5,1.6,0.9,2.6,0.9l0.7,0v1.6l-1.8-0.1
					c-2.3-0.1-4.3-0.2-6.5-0.2c-2.4,0-4.7,0-7.7,0.3L195.4,82.4z"/>
			</g>
			<g>
				<path fill="#890816" d="M237.3,82.4v-1.6l0.7-0.1c0.6,0,2-0.3,3-1.4c1-1.2,1.1-4,1.1-9.7V52.9h-4.4v-1.9l0.4-0.2
					c1.9-0.8,3.1-1.4,3.9-2.1c0-3,0.1-6.8,0.5-8.9c1.3-6.9,5.9-10.5,13.5-10.5c3.3,0,6.4,1.1,8.2,2.6l0.3,0.2l0.1,0.7l-3.3,4.6
					l-0.8,0l-0.2-0.4c-1.3-2.9-3.1-4-5.7-4c-1.1,0-2.5,0.3-3.4,1.2c-1.5,1.5-1.7,3.6-1.7,7.9v6.5h7.5v4.2h-7.5v18.6
					c0,4.4,0.1,6.6,0.7,7.5c0.9,1.4,3.8,1.5,4.6,1.5h0.7v1.8l-0.7,0c-3.7-0.2-6.4-0.3-8.4-0.3c-2.5,0-5.3,0-8.3,0.3L237.3,82.4z"/>
			</g>
			<g>
				<path fill="#890816" d="M275.9,82.9c-10.2,0-16.4-6.4-16.4-17.1c0-8.3,4.5-18,17.1-18c10.3,0,16.4,6.4,16.4,17.1
					C293,73.2,288.5,82.9,275.9,82.9z M276.3,51.7c-2,0-3.6,0.5-4.8,1.5c-2.7,2.3-4.1,6.4-4.1,12.2c0,2.3,0.4,13.6,8.7,13.6
					c2,0,3.6-0.5,4.8-1.5c2.7-2.3,4.1-6.4,4.1-12.2C285,63,284.6,51.7,276.3,51.7z"/>
			</g>
			<g>
				<path fill="#890816" d="M296.2,82.4v-1.7l0.7,0c0.6,0,2-0.3,3-1.4c1-1.2,1.1-3.9,1.1-9.6V60c0-4.1-0.1-5.9-0.6-6.8
					c-0.7-1-2.2-1.1-3-1.1c-0.1,0-0.2,0-0.3,0l-0.7-0.1v-2l0.7,0c0.1,0,0.3,0,0.6,0c1,0,3.5-0.1,6.1-0.6c1.6-0.3,3-0.7,3.6-1
					l0.4-0.2l0.6,0.3v2.9c1.6-1.5,4.2-3.1,7.8-3.1c2.3,0,4.2,0.6,5.6,1.9l0.2,0.2v1.1l-2.8,5.2h-1.4l-0.2-0.3
					c-0.8-1.2-2.4-2.7-5.4-2.7c-1.4,0-2.6,0.3-3.7,1.1v16.9c0,4.4,0.1,6.5,0.7,7.4c1,1.4,3.8,1.5,4.6,1.5h0.7v1.9l-0.7,0
					c-3.7-0.2-6.5-0.3-8.4-0.3c-2.5,0-5.3,0-8.3,0.3L296.2,82.4z"/>
			</g>
			<g>
				<path fill="#890816" d="M349,82.8l-0.9-0.3v-2.8c-1.7,1.2-5,3.2-9.4,3.2c-9.2,0-15.2-6.4-15.2-16.3c0-3.3,0.6-6.4,1.8-9
					c2.8-6.1,8.7-9.6,16-9.6c2.7,0,5.1,0.3,6.6,0.6v-7.1c0-4.2-0.1-6.4-0.7-7.3c-0.7-1-2.2-1.1-3-1.1c-0.1,0-0.2,0-0.3,0l-0.6-0.1
					l0.1-1.5h0.7c0.2,0,4-0.3,7.2-0.9c1.3-0.2,2.6-0.5,3.3-0.8l0.3-0.1l0.6,0.3l0,0.3c-0.2,2.8-0.3,8.7-0.3,13.1v27.4
					c0,4.1,0.1,6.6,0.6,7.4c0.7,1,2.2,1.2,3,1.2c0.1,0,0.2,0,0.3,0l0.6,0v1.8h-0.7c-0.8,0-3.7,0.2-6.5,0.7c-1.6,0.3-2.8,0.5-3.4,0.8
					L349,82.8z M341.3,51.9c-6.5,0-9.7,4.5-9.7,13.7c0,3.7,1.1,12.4,10.8,12.4h0.3c1.2,0,3.4-0.2,5.3-1.4V54.2
					C347.4,53.6,345.4,51.9,341.3,51.9z"/>
			</g>
		</g>
	</g>
	<g>
		<g>
			<path fill="#221F1F" d="M105.2,95.4h5.5l5.1,13.8l1.8,5.3h0.2l1.8-5.3l5-13.8h5.5v28h-4.7v-12.8c0-2.6,0.4-6.3,0.6-8.9h-0.2
				l-2.3,6.4l-4.8,12.7h-2.3l-4.8-12.7l-2.2-6.4h-0.2c0.3,2.6,0.6,6.3,0.6,8.9v12.8h-4.6L105.2,95.4L105.2,95.4z"/>
			<path fill="#221F1F" d="M147.8,95.4h16.9v4.2h-11.9v7.1h10.1v4.2h-10.1v8.3h12.3v4.2h-17.3L147.8,95.4L147.8,95.4z"/>
			<path fill="#221F1F" d="M181.5,95.4h7.5c8.6,0,13.6,4.6,13.6,13.9c0,9.3-5.1,14.1-13.3,14.1h-7.7L181.5,95.4L181.5,95.4z
				 M188.7,119.4c5.6,0,8.9-3.2,8.9-10.1c0-6.8-3.2-9.8-8.9-9.8h-2.2v19.9C186.5,119.4,188.7,119.4,188.7,119.4z"/>
			<path fill="#221F1F" d="M219,95.4h5v28h-5V95.4z"/>
			<path fill="#221F1F" d="M253.2,94.9c3.4,0,6.2,1.7,8,3.5l-2.8,3.1c-1.4-1.4-3-2.3-5.1-2.3c-4.6,0-7.9,3.8-7.9,10.1
				c0,6.4,3,10.2,7.7,10.2c2.5,0,4.3-1,5.9-2.8l2.8,3c-2.3,2.6-5.2,4.1-8.7,4.1c-7.1,0-12.7-5.1-12.7-14.4
				C240.3,100.4,246,94.9,253.2,94.9z"/>
			<path fill="#221F1F" d="M277.1,95.4h5v28h-5V95.4z"/>
			<path fill="#221F1F" d="M299.9,95.4h5.1l8.7,15.7l2.9,5.9h0.2c-0.2-2.9-0.6-6.4-0.6-9.5V95.4h4.7v28h-5.1l-8.7-15.7l-2.9-5.9H304
				c0.2,3,0.6,6.3,0.6,9.5v12.2h-4.7L299.9,95.4L299.9,95.4z"/>
			<path fill="#221F1F" d="M338.7,95.4h16.9v4.2h-11.9v7.1h10.1v4.2h-10.1v8.3h12.3v4.2h-17.3V95.4z"/>
		</g>
	</g>
	<path fill="#890816" d="M79.4,32.1H43.6v89v4.6c2.7-1.5,5.1-3,7.4-4.6C94.1,91.4,82.8,40.1,79.4,32.1z"/>
	<path fill="#890816" d="M42.6,32.1H6.8C5,36.4,0.9,53.1,4.1,72.2h38.5L42.6,32.1L42.6,32.1z"/>
	<path fill="#890816" d="M4.3,73.2c2.9,16.4,11.3,34.4,30.9,47.9c2.3,1.6,4.8,3.2,7.4,4.6v-4.6V73.2H4.3z"/>
	<path fill="#FFFFFF" d="M42.6,32.1v40.1H4.1c0.1,0.3,0.1,0.6,0.2,1h38.3v47.9v4.6c0.2,0.1,0.3,0.2,0.5,0.3c0.2-0.1,0.3-0.2,0.5-0.3
		v-4.6v-89H42.6z"/>
	<path fill="#FFFFFF" d="M23.3,39.5l0,1.1c0.7-0.6,1.8-1.1,2.7-1.3c-0.5,2.1-1.5,2.7-2.7,2.9l0,1.8c0.9-0.8,2.3-1.8,3.4-2
		c-0.6,2.7-1.9,3.7-3.4,3.9v1.8c1.2-0.8,3-2.1,4.4-2.3c-0.8,2.8-2.5,3.9-4.3,4l0,1.6c1.2-0.8,3-1.9,4.3-2.1
		c-0.7,2.7-2.5,4.3-4.3,4.5v1.4c1.2-0.7,3-1.9,4.3-2.1c-0.7,2.8-2.5,4.3-4.4,4.5v1.1c1.4-0.8,3.7-2.3,5.3-2.5
		c-0.9,3-3.1,4.6-5.3,4.8V62c0.8-0.6,2.3-1.3,3.2-1.4c-0.5,2-2.1,2.8-3.2,3V66c0.3,0,0.5-0.1,0.8-0.1c-0.1-0.8,0.4-1.7,1.5-2.4
		c0,0.6-0.3,1.6-0.5,2.2c0.6-0.1,1.2-0.3,1.8-0.5c-0.3-1.2,0.1-2.9,1.5-4.3c0.3,1,0,2.5-0.1,3.5c0.6-0.4,1.2-0.8,1.9-1.3
		c-0.7-1.2-0.6-3,0.8-4.8c0.4,0.9,0.4,2.6,0.4,3.7c0.5-0.6,1.1-1.2,1.6-1.9c-0.9-1.1-1-2.2,0.1-4.4c0.4,0.9,0.7,2.2,0.7,3.3
		c0.5-0.6,0.8-1.1,1.2-1.9c-0.2-0.6-0.1-1,0.2-1.4c0.4-0.5,1-1,1.6-0.6c0.8,0.3,0.4,1.2,0.1,1.8c-0.2,0.4-0.5,0.7-1.1,0.7
		c-0.4,0.7-0.9,1.5-1.4,2.1c1.1,0.4,1.9,0.6,2.7,1.4c-1.6,0.7-2.6,0.5-3.4-0.2c-0.5,0.7-1.3,1.5-1.9,2.1c1.1,0.3,1.8,0.6,2.7,1.5
		c-1.8,0.7-3.1,0.5-3.9-0.3c-0.6,0.5-1.2,1.1-1.9,1.5c1.1,0.5,1.8,1.1,2.5,2c-2,0.5-3.4-0.1-4-1.3c-0.6,0.2-1.2,0.4-1.8,0.6
		c0.6,0.5,1,0.9,1.3,1.5c-1.4,0-2.2-0.4-2.4-1.2c-0.3,0-0.6,0.2-0.8,0.2v2.7l-1.7-0.8v-2c-0.2,0-0.6-0.2-0.7-0.2
		c-0.2,0.8-0.9,1.1-2.2,1.2c0.3-0.7,0.5-1.1,1.1-1.5c-0.6-0.2-1.2-0.5-1.8-0.7c-0.5,1.3-1.7,1.8-3.9,1.3c0.6-0.9,1.4-1.7,2.5-2
		C16,65,15.5,64.7,15,64.2c-0.8,0.9-2.1,1.2-3.9,0.4c0.7-0.8,1.5-1.4,2.6-1.6c-0.6-0.6-1.1-1.3-1.7-2c-0.8,0.7-2.1,1-3.7,0.2
		c0.8-0.8,1.6-1.6,2.7-1.6c-0.3-0.5-0.6-1-1-1.6c-0.4,0-0.7,0-1-0.5c-0.4-0.5-0.8-1.6-0.1-1.9c0.4-0.4,1.4,0.2,1.7,0.7
		c0.3,0.5,0.2,0.8,0.1,1.2c0.3,0.5,0.7,1,1.1,1.5c-0.2-1.5,0.2-2.8,0.6-3.6c1.3,1.9,1.1,3.5,0.3,4.7c0.6,0.7,1,1.2,1.6,1.8
		c-0.2-1.1,0-2.7,0.4-3.5c1.3,1.7,1.4,3.5,0.9,4.7c0.5,0.4,1,0.9,1.5,1.2c-0.3-1-0.4-2.6-0.2-3.6c1.4,1.4,1.9,3.1,1.5,4.3
		c0.6,0.3,1.2,0.5,1.8,0.7c-0.3-0.6-0.6-1.6-0.5-2.2c1.1,0.7,1.3,1.5,1.3,2.3c0.2,0,0.6,0.2,0.8,0.2l0-2.4c-1.1-0.3-2.6-0.9-3.2-2.9
		c1,0.2,2.2,0.5,3.2,1.3v-1.3c-2.1-0.2-4.3-1.7-5.3-4.7c1.8,0.3,3.6,1.2,5.3,2.3v-1.1c-1.9-0.1-3.6-1.9-4.4-4.3c1.5,0.3,3,1,4.4,2
		v-1.4c-1.7-0.2-3.5-1.7-4.4-4.4c1.5,0.3,3,1,4.4,2v-1.6c-1.8-0.1-3.5-1.1-4.4-3.9c1.5,0.3,3,1.1,4.4,2.1V46c-1.4-0.2-2.8-1-3.5-3.8
		c1.2,0.3,2.3,0.8,3.5,1.8v-1.8c-1.1-0.2-2.1-0.6-2.6-2.8c0.7,0.2,1.6,0.2,2.7,1.1l0-1.1c-0.8-1.2-0.6-1.8-0.5-2.7
		c0.1-0.9,0.4-1.5,1.4-1.6c0.9,0,1.3,0.7,1.4,1.6C23.9,37.7,24.1,38.3,23.3,39.5"/>
	<path fill="#FFFFFF" d="M63.5,61.7c0.6-6.8,1.6-8.7,3.3-10.1l0.1-0.1l-0.6-4.2L66,47.3c-0.9,0.2-1.8,1-2.3,1.8l0-3.9L59,42.4v2.4
		c-0.5-0.5-0.9-0.9-1.1-1c-0.5-0.4-1-0.6-1.4-0.6c-0.3,0-0.5,0.1-0.7,0.1c-0.4,0.1-0.6,0.2-1.1-0.1c-2.3-0.5-4.1,0-5.1,1.4
		c-0.9,1.3-1.1,3.3-0.4,5.3c0.6,1.6,1.6,3.2,2.4,4.3c0.5,0.6,4.5,4.9,5.4,5.8c0.7,0.7,1.4,1.4,2.1,2l0,1.8l-1.2-0.8l-1.2,2.7L57,66
		c1,0.6,2,2.3,2.7,10.9c-2.5,0.9-5.9,3.9-5.9,7c0,1.4,0.6,3.4,4.2,4.8c0.8,0.3,1.6,0.6,2.4,1c0,1.6,0.1,3.3,0.1,5.1
		c-0.6,0.2-2.1,1-2.3,2.2c-0.2,0.9,0.4,1.8,1.7,2.7c0.2,0.2,0.5,0.2,0.7,0.3c0,0.5,0,0.9,0,1.4c-0.8,0.4-1.1,0.5-1.5,1.1
		c-0.2,0.3-0.5,0.6-0.3,0.8c0,0.1,0.1,0.2,0.4,0.2c0.2,0,0.4-0.1,0.9-0.3c0.3-0.1,0.5-0.2,0.6-0.2c0.2,0.5,0.7,0.8,1.2,0.8
		c0.6,0,1-0.4,1.2-1c0-0.2,0-0.4,0-0.6c0.6-0.3,1-0.9,1.1-1.6c0-0.8-0.4-1.6-1.1-2.1c0-0.7,0-1.3,0-2c2.3-0.5,4.8-2,5.1-4
		c0.1-1.2-0.5-3-4.4-4.6c-0.2-0.1-0.5-0.2-0.7-0.3c0-3.2,0-6.1,0-8.7c4.2-2.1,7-4,7.4-6.6C70.6,69.7,68.4,66.5,63.5,61.7z
		 M57.6,56.2c-6.3-5.7-6.5-8.3-6.1-9.3c0.4-1,1.5-1.2,2.1-1.2c0.2,0,0.3,0,0.3,0c0.2,0,0.2,0.1,0.3,0.3c0.1,0.4,0.2,1,1.5,1.4
		c1.5,0.5,2.6,0.8,3.4,0.8l0,9.2C58.6,57.1,58.1,56.7,57.6,56.2z M65.1,92.7c0,0.3-0.4,0.8-2.2,1.4c0-1.1,0-2.2,0-3.3
		C64.2,91.5,65.2,92.2,65.1,92.7z M63,45.5l0,2.8l-1.7-0.4l-0.8-0.4c0.1-0.6-0.3-1.3-0.9-1.9l0-1.9L63,45.5z M56.9,84
		c-0.1-0.8,0.8-1.9,3-3.5c0.1,1.8,0.2,3.8,0.3,6.1C58.3,85.7,57,84.8,56.9,84z M61,89.9c0.4,0.2,0.8,0.4,1.2,0.5c0,1.2,0,2.5,0,3.8
		l0,0v2.4l0,0c0,0.5,0,1,0,1.5c-0.3-0.1-1-0.5-1.1-1C61.1,94.5,61,92.1,61,89.9z M61.8,103.1c-0.2,0-0.5-0.1-0.6-0.4v-0.1
		c0-0.9,0-1.7,0-2.6c0.7,0.2,1.1,0.3,1.1,1.2v1.2l0,0c0,0.1,0,0.1,0,0.2C62.2,103.1,61.9,103.1,61.8,103.1z M62.2,87.4
		c-0.5-0.2-0.9-0.4-1.3-0.6c-0.6-18.5-2.1-20.4-3.3-21.3l0.6-1.4l1.5,1l0-2.5c0.3,0.3,0.6,0.5,0.9,0.8c0.7,0.6,1.3,1.2,2,1.8
		C62.3,70.4,62.2,77.5,62.2,87.4z M62.8,61.1c-1-0.9-2-1.9-3.1-3l0-9.9c0.2,0,0.4-0.1,0.5-0.2l0.8,0.4l1,1.6l0.3-0.1l-0.1-1l0.8-0.2
		l0,1.6l0.6,0.1c0.3-0.7,1.3-2,2.1-2.3l0.5,3.1C64.5,52.6,63.4,54.6,62.8,61.1z M66.8,71.9c-0.2,1.3-1.5,2.5-3.9,3.6
		c0.1-3.8,0.1-7,0.3-9.6C65.4,68.1,67.1,70.1,66.8,71.9z"/>
	<path fill="#A20D38" d="M55.7,46.5c0.2,0.1,0.3,0.1,0.4,0c0.1-0.1,0-0.3-0.2-0.4c-0.2-0.1-0.4-0.1-0.4,0
		C55.5,46.3,55.6,46.4,55.7,46.5"/>
	<path fill="#A20D38" d="M55.9,46.7c-0.1,0-0.2,0-0.3-0.1c-0.1-0.1-0.2-0.2-0.3-0.3c0-0.1,0-0.2,0-0.3c0.1-0.2,0.4-0.2,0.6-0.1
		c0.2,0.1,0.4,0.4,0.3,0.6C56.2,46.7,56.1,46.7,55.9,46.7"/>
	<path fill="#A20D38" d="M56.6,44.6c0.1,0.1,0.3,0.2,0.4,0.1c0.1-0.1,0-0.3-0.1-0.4c-0.1-0.1-0.3-0.2-0.4-0.1
		C56.4,44.3,56.5,44.5,56.6,44.6"/>
	<path fill="#A20D38" d="M56.9,44.9c-0.1,0-0.3-0.1-0.4-0.2c-0.1-0.1-0.2-0.3-0.2-0.4c0-0.1,0-0.2,0.1-0.3c0.1-0.1,0.4-0.1,0.6,0.1
		c0.1,0.1,0.2,0.2,0.2,0.4c0,0.1,0,0.2-0.1,0.3C57.1,44.9,57,44.9,56.9,44.9"/>
	<path fill="#FFFFFF" d="M33.1,88.7l0-8.5H17.9v15.1h4.7v8.5h15.1V88.7L33.1,88.7L33.1,88.7z M28.6,82.1h2.5v6.3h-2.5V82.1z
		 M31.2,95.3v1.9h-1.9v-1.9H31.2z M20.2,82.1h6.3v2.5h-6.3V82.1z M22.6,93.4h-2.5V87h2.5V93.4z M24.5,86.8h1.9v1.9h-1.9V86.8z
		 M24.7,90.9h6.3v2.5h-6.3V90.9z M27.3,101.6h-2.5v-6.3h2.5V101.6z M35.5,101.6h-6.3v-2.5h6.3V101.6z M35.6,97.2h-2.5v-6.3h2.5V97.2
		z"/>
</g>
</svg>
